<?xml version="1.0" encoding="utf-8"?>
<!-- Generator: Adobe Illustrator 15.1.0, SVG Export Plug-In . SVG Version: 6.00 Build 0)  -->
<!DOCTYPE svg PUBLIC "-//W3C//DTD SVG 1.0//EN" "http://www.w3.org/TR/2001/REC-SVG-20010904/DTD/svg10.dtd">
<svg version="1.0" id="Layer_1" xmlns="http://www.w3.org/2000/svg" xmlns:xlink="http://www.w3.org/1999/xlink" x="0px" y="0px"
	 width="392.97px" height="50.909px" viewBox="0 0 392.97 50.909" enable-background="new 0 0 392.97 50.909" xml:space="preserve">
<rect y="10.875" fill="#010101" width="140.204" height="40.034"/>
<rect x="125.809" y="10.875" fill="#A51E23" width="267.161" height="40.034"/>
<g>
	<g>
		<path fill-rule="evenodd" clip-rule="evenodd" fill="#A51B3D" d="M88.355,2.729c-2.689,2.47-6.374,3.94-10.92,4.55
			c3.294,3.584,11.413-2.981,11.832,2.732c-6.538-0.167-11.619,1.119-17.288,1.818c-4.6,4.62-0.952,11.851-1.825,20.021
			c2.055-0.677,0.36-5.104,0.911-7.279c4.084,6.527,4.408,16.827,10.014,21.837c-7.488-0.71-6.814-9.569-10.925-13.652
			c-0.492,5.166-3.054,12.57,0.911,17.291c-8.528,0.035-2.224-14.758-5.458-20.018c-2.771,7.05,1.305,16.256-3.639,20.018
			c-1.377-7.695,0.188-25.054-1.821-38.219c-6.27-0.406-11.053-2.292-18.199-1.818c0.498-5.54,6.915-0.163,11.828-1.821
			c-3.571-1.585-7.285-3.028-10.917-4.55c5.27-3.609,11.533,5.515,20.017,4.55c2.095-1.772-1.742-5.861,0.911-8.19
			c1.214,0,2.426,0,3.639,0c1.805,1.792,0.58,5.196,0,7.279C74.91,10.097,81.932,1.037,88.355,2.729z"/>
		<path fill-rule="evenodd" clip-rule="evenodd" fill="#A51B3D" d="M59.237,23.659c2.681,9.668-1.708,20.127-9.101,22.75
			C54.902,40.559,56.8,31.836,59.237,23.659z"/>
	</g>
	<path fill="#FFFFFF" d="M65.255,15.756c0.524,0,0.984,0.198,1.38,0.595c0.396,0.396,0.595,0.861,0.595,1.397
		c0,0.524-0.193,0.98-0.577,1.365c-0.384,0.384-0.844,0.577-1.38,0.577c-0.539,0-1.002-0.196-1.392-0.586
		c-0.39-0.391-0.586-0.85-0.586-1.374s0.199-0.984,0.595-1.38C64.285,15.954,64.739,15.756,65.255,15.756z"/>
</g>
<g>
	<path fill="#FFFFFF" d="M20.633,14.801h1.215l9.627,24.558c0.388,0.991,1.18,1.488,2.378,1.488h0.835v1.36H23.979v-1.36h0.853
		c1.113,0,1.899-0.122,2.359-0.362c0.314-0.17,0.472-0.43,0.472-0.781c0-0.205-0.042-0.422-0.126-0.654l-2.221-5.697H14.698
		l-1.247,3.266c-0.326,0.872-0.49,1.563-0.49,2.068c0,0.596,0.275,1.102,0.826,1.527c0.55,0.423,1.352,0.634,2.405,0.634H17.1v1.36
		H7.371v-1.36c1.041,0,1.863-0.228,2.468-0.681c0.605-0.453,1.161-1.316,1.669-2.586L20.633,14.801z M20.104,19.975l-4.82,11.961
		h9.48L20.104,19.975z"/>
	<path fill="#FFFFFF" d="M48.736,26.164c1.21-1.223,2.323-1.833,3.339-1.833c0.605,0,1.107,0.193,1.506,0.58
		c0.4,0.387,0.6,0.858,0.6,1.415c0,0.448-0.137,0.821-0.408,1.116c-0.272,0.298-0.59,0.445-0.953,0.445
		c-0.689,0-1.155-0.423-1.398-1.271c-0.097-0.361-0.26-0.543-0.49-0.543c-0.412,0-0.859,0.272-1.344,0.816
		c0.521,0.715,0.878,1.336,1.072,1.859c0.193,0.527,0.29,1.094,0.29,1.698c0,1.054-0.254,1.981-0.762,2.786
		c-0.509,0.805-1.353,1.516-2.532,2.133s-2.308,0.926-3.385,0.926h-1.978c-1.404,0-2.336,0.145-2.795,0.436
		c-0.46,0.303-0.69,0.744-0.69,1.325c0,0.472,0.188,0.835,0.563,1.089s1.083,0.381,2.124,0.381l4.483-0.092
		c2.263,0,3.894,0.38,4.892,1.136c0.999,0.757,1.497,1.794,1.497,3.112c0,1.453-0.569,2.676-1.706,3.667
		c-1.585,1.405-3.952,2.104-7.097,2.104c-2.602,0-4.531-0.477-5.791-1.432c-0.992-0.75-1.488-1.593-1.488-2.524
		c0-0.714,0.318-1.366,0.953-1.96c0.636-0.594,1.704-1.034,3.204-1.326c-1.198-0.289-2.1-0.716-2.704-1.278
		c-0.605-0.563-0.908-1.261-0.908-2.097c0-0.773,0.245-1.449,0.735-2.023c0.49-0.574,1.339-1.066,2.549-1.48
		c-1.028-0.568-1.803-1.254-2.323-2.059c-0.52-0.807-0.78-1.728-0.78-2.77c0-1.645,0.647-3.023,1.942-4.136
		c1.295-1.113,2.977-1.67,5.046-1.67c0.847,0,1.664,0.12,2.45,0.362S47.998,25.667,48.736,26.164z M45.033,42.227
		c-2.227,0-3.814,0.309-4.764,0.926s-1.424,1.361-1.424,2.232c0,0.822,0.356,1.469,1.07,1.941c0.943,0.629,2.287,0.944,4.029,0.944
		c2.082,0,3.648-0.345,4.701-1.034s1.579-1.459,1.579-2.306c0-0.497-0.163-0.96-0.49-1.389s-0.847-0.756-1.562-0.979
		C47.459,42.338,46.413,42.227,45.033,42.227z M43.963,25.854c-1.078,0-1.967,0.397-2.668,1.189
		c-0.702,0.793-1.052,1.903-1.052,3.332c0,1.523,0.351,2.707,1.052,3.547c0.702,0.842,1.597,1.262,2.687,1.262
		s1.981-0.408,2.677-1.225c0.695-0.816,1.043-1.988,1.043-3.513c0-1.417-0.354-2.534-1.062-3.357
		C45.932,26.268,45.039,25.854,43.963,25.854z"/>
	<path fill="#FFFFFF" d="M76.326,25.201l5.644-0.344c0.23,1.065,0.4,2.31,0.508,3.739c0.762-1.234,1.661-2.16,2.695-2.777
		c1.034-0.618,2.206-0.926,3.513-0.926c1.125,0,2.068,0.22,2.832,0.662s1.373,1.14,1.833,2.096s0.69,2.026,0.69,3.212v8.277
		c0,0.617,0.139,1.056,0.417,1.316c0.278,0.26,0.744,0.39,1.397,0.39h1.198v1.36h-8.966v-1.36h0.854c0.797,0,1.354-0.128,1.67-0.381
		c0.313-0.253,0.472-0.634,0.472-1.144v-7.277c0-1.586-0.243-2.76-0.727-3.521c-0.678-1.09-1.707-1.635-3.085-1.635
		c-1.368,0-2.508,0.551-3.422,1.652s-1.371,2.535-1.371,4.302v6.298c0,0.617,0.142,1.056,0.428,1.316
		c0.284,0.26,0.753,0.39,1.406,0.39h1.179v1.36h-9.003v-1.36h1.179c0.595,0,1.044-0.122,1.354-0.362
		c0.308-0.242,0.463-0.545,0.463-0.908v-10.98c0-0.727-0.196-1.277-0.59-1.652c-0.394-0.375-0.959-0.562-1.698-0.562h-0.87V25.201z"
		/>
	<path fill="#FFFFFF" d="M112.065,26.164c1.21-1.223,2.323-1.833,3.338-1.833c0.605,0,1.107,0.193,1.507,0.58
		c0.398,0.387,0.598,0.858,0.598,1.415c0,0.448-0.135,0.821-0.407,1.116c-0.272,0.298-0.59,0.445-0.952,0.445
		c-0.691,0-1.157-0.423-1.399-1.271c-0.097-0.361-0.259-0.543-0.491-0.543c-0.41,0-0.858,0.272-1.342,0.816
		c0.52,0.715,0.876,1.336,1.071,1.859c0.193,0.527,0.29,1.094,0.29,1.698c0,1.054-0.253,1.981-0.763,2.786
		c-0.507,0.805-1.351,1.516-2.531,2.133s-2.309,0.926-3.385,0.926h-1.979c-1.403,0-2.335,0.145-2.795,0.436
		c-0.46,0.303-0.688,0.744-0.688,1.325c0,0.472,0.188,0.835,0.563,1.089s1.083,0.381,2.124,0.381l4.482-0.092
		c2.262,0,3.894,0.38,4.893,1.136c0.998,0.757,1.497,1.794,1.497,3.112c0,1.453-0.57,2.676-1.707,3.667
		c-1.586,1.405-3.951,2.104-7.097,2.104c-2.602,0-4.532-0.477-5.791-1.432c-0.992-0.75-1.488-1.593-1.488-2.524
		c0-0.714,0.318-1.366,0.954-1.96s1.702-1.034,3.202-1.326c-1.197-0.289-2.098-0.716-2.704-1.278
		c-0.604-0.563-0.907-1.261-0.907-2.097c0-0.773,0.245-1.449,0.735-2.023s1.34-1.066,2.55-1.48
		c-1.028-0.568-1.805-1.254-2.323-2.059c-0.521-0.807-0.781-1.728-0.781-2.77c0-1.645,0.646-3.023,1.941-4.136
		c1.295-1.113,2.978-1.67,5.048-1.67c0.847,0,1.663,0.12,2.449,0.362S111.327,25.667,112.065,26.164z M108.362,42.227
		c-2.227,0-3.814,0.309-4.765,0.926s-1.425,1.361-1.425,2.232c0,0.822,0.357,1.469,1.072,1.941c0.943,0.629,2.285,0.944,4.028,0.944
		c2.082,0,3.647-0.345,4.702-1.034c1.052-0.689,1.579-1.459,1.579-2.306c0-0.497-0.164-0.96-0.491-1.389s-0.848-0.756-1.562-0.979
		C110.788,42.338,109.742,42.227,108.362,42.227z M107.29,25.854c-1.077,0-1.966,0.397-2.667,1.189
		c-0.702,0.793-1.053,1.903-1.053,3.332c0,1.523,0.352,2.707,1.053,3.547c0.702,0.842,1.598,1.262,2.687,1.262
		s1.982-0.408,2.676-1.225c0.697-0.816,1.044-1.988,1.044-3.513c0-1.417-0.353-2.534-1.062-3.357
		C109.26,26.268,108.368,25.854,107.29,25.854z"/>
</g>
<g>
	<path fill="#FFFFFF" d="M144.406,20.758l10.057,21.565h-2.327l-3.392-7.096h-9.29l-3.36,7.096h-2.403l10.188-21.565H144.406z
		 M144.135,25.34l-3.695,7.807h7.373L144.135,25.34z"/>
	<path fill="#FFFFFF" d="M159.322,42.324V20.758h0.469l14.352,16.531V20.758h2.127v21.565h-0.483L161.55,25.995v16.329H159.322z"/>
	<path fill="#FFFFFF" d="M183.018,42.324V20.758h4.472c3.224,0,5.565,0.259,7.021,0.778c2.092,0.732,3.727,2.004,4.905,3.812
		c1.178,1.807,1.766,3.963,1.766,6.465c0,2.16-0.467,4.061-1.4,5.701c-0.933,1.645-2.146,2.854-3.635,3.637
		c-1.49,0.781-3.579,1.173-6.268,1.173H183.018z M185.085,40.286h2.493c2.979,0,5.048-0.186,6.201-0.557
		c1.622-0.527,2.897-1.477,3.826-2.849c0.927-1.372,1.393-3.048,1.393-5.032c0-2.08-0.504-3.856-1.51-5.332
		c-1.006-1.474-2.41-2.484-4.208-3.032c-1.348-0.41-3.571-0.615-6.669-0.615h-1.525V40.286z"/>
	<path fill="#FFFFFF" d="M218.741,22.869v-2.111h11.815v2.111h-4.808v19.455h-2.2V22.869H218.741z"/>
	<path fill="#FFFFFF" d="M235.137,20.758h2.155v9.045h10.98v-9.045h2.156v21.565h-2.156V31.917h-10.98v10.407h-2.155V20.758z"/>
	<path fill="#FFFFFF" d="M257.19,20.758h12.358v2.111h-10.202v6.758h10.114v2.111h-10.114v8.475h10.114v2.11H257.19V20.758z"/>
	<path fill="#FFFFFF" d="M278.643,37.717c0.713,0,1.32,0.25,1.822,0.752c0.503,0.504,0.755,1.118,0.755,1.844
		c0,0.711-0.252,1.324-0.755,1.834c-0.502,0.51-1.109,0.764-1.822,0.764c-0.711,0-1.319-0.254-1.82-0.764
		c-0.504-0.51-0.756-1.123-0.756-1.834c0-0.726,0.252-1.34,0.756-1.844C277.323,37.967,277.932,37.717,278.643,37.717z"/>
	<path fill="#FFFFFF" d="M292.663,37.717c0.712,0,1.318,0.25,1.822,0.752c0.501,0.504,0.753,1.118,0.753,1.844
		c0,0.711-0.252,1.324-0.753,1.834c-0.504,0.51-1.11,0.764-1.822,0.764s-1.319-0.254-1.822-0.764
		c-0.504-0.51-0.755-1.123-0.755-1.834c0-0.726,0.251-1.34,0.755-1.844C291.344,37.967,291.951,37.717,292.663,37.717z"/>
	<path fill="#FFFFFF" d="M306.682,37.717c0.712,0,1.32,0.25,1.822,0.752c0.502,0.504,0.753,1.118,0.753,1.844
		c0,0.711-0.251,1.324-0.753,1.834s-1.11,0.764-1.822,0.764s-1.318-0.254-1.822-0.764c-0.502-0.51-0.753-1.123-0.753-1.834
		c0-0.726,0.251-1.34,0.753-1.844C305.363,37.967,305.97,37.717,306.682,37.717z"/>
</g>
</svg>
