<?xml version="1.0" encoding="utf-8"?>
<!-- Generator: Adobe Illustrator 15.1.0, SVG Export Plug-In . SVG Version: 6.00 Build 0)  -->
<!DOCTYPE svg PUBLIC "-//W3C//DTD SVG 1.1//EN" "http://www.w3.org/Graphics/SVG/1.1/DTD/svg11.dtd">
<svg version="1.1" id="Layer_1" xmlns="http://www.w3.org/2000/svg" xmlns:xlink="http://www.w3.org/1999/xlink" x="0px" y="0px"
	 width="392.25px" height="47.986px" viewBox="0 5.197 392.25 47.986" enable-background="new 0 5.197 392.25 47.986"
	 xml:space="preserve">
<rect y="12.472" width="144.162" height="40.712"/>
<path fill="#539E45" d="M60.958,46.335c0,0-0.223-2.092,1.072-2.789c1.293-0.696,1.494-0.797,2.49-0.797c0.995,0,3.186,0,3.186,0
	s0.3-0.797,0.699-0.797S55.954,29.602,55.954,29.602s-0.201,0.598-1.097,0.598s-2.987-0.797-2.987-3.188s1.893-2.989,3.088-2.989
	c1.192,0,1.494,0.499,1.494,0.499l11.96-10.458c0,0-0.505-1.197-1.206-2.191c-0.696-0.997-1.094-1.693-0.198-2.291
	c0.898-0.598,1.403-1.694,1.403-1.694L67.31,6.293l-0.103-1.096h1.206l1.187,1.992l1.496-0.896c0,0,0.896-0.299,1.592,0.198
	c0.699,0.499,2.093,2.591,2.093,2.591l-1.894,1.892l0.4,0.897c0,0,1.793-1.297,3.088-1.297s4.184,0.599,6.674,2.491
	c2.489,1.895,3.387,3.189,3.387,3.189L71.493,27.011c0,0-1.693-0.998-2.344-3.587c-0.645-2.588-0.943-6.276-0.545-6.872
	c0.397-0.598-11.016,8.922-11.016,8.922s0.217,0.44-0.012,1.537c-0.229,1.096-0.428,1.594-0.428,1.594l13.248,12.45
	c0,0,1.192,0.598,1.594,1.097c0.398,0.499,1.094,0.797,1.094,0.797l3.784-0.199c0,0,1.298,0.298,1.994,0.995
	c0.698,0.697,0.798,2.591,0.798,2.591H60.958z"/>
<rect x="141.999" y="12.472" fill="#539E45" width="250.251" height="40.712"/>
<path fill="#FFFFFF" d="M169.693,26.591l-1.731,1.327c-0.952-1.242-2.099-2.184-3.437-2.825c-1.336-0.641-2.804-0.961-4.404-0.961
	c-1.751,0-3.369,0.419-4.861,1.26c-1.49,0.84-2.646,1.968-3.467,3.384c-0.818,1.416-1.229,3.01-1.229,4.779
	c0,2.673,0.916,4.904,2.749,6.693c1.834,1.789,4.148,2.684,6.94,2.684c3.073,0,5.643-1.202,7.708-3.609l1.731,1.313
	c-1.094,1.393-2.458,2.469-4.093,3.229c-1.636,0.761-3.463,1.141-5.479,1.141c-3.837,0-6.863-1.276-9.081-3.831
	c-1.857-2.157-2.786-4.763-2.786-7.812c0-3.211,1.125-5.912,3.375-8.104c2.253-2.191,5.071-3.287,8.461-3.287
	c2.048,0,3.896,0.405,5.547,1.215S168.639,25.13,169.693,26.591z"/>
<path fill="#FFFFFF" d="M186.062,21.97c3.322,0,6.101,1.108,8.338,3.324c2.238,2.217,3.357,4.945,3.357,8.186
	c0,3.21-1.116,5.935-3.349,8.169c-2.232,2.237-4.955,3.355-8.168,3.355c-3.252,0-5.997-1.113-8.235-3.34
	c-2.238-2.226-3.357-4.92-3.357-8.08c0-2.107,0.51-4.061,1.529-5.859c1.02-1.799,2.409-3.208,4.169-4.228
	C182.106,22.479,184.012,21.97,186.062,21.97z M186.158,24.102c-1.623,0-3.161,0.423-4.614,1.269
	c-1.453,0.845-2.59,1.984-3.405,3.417c-0.816,1.433-1.224,3.028-1.224,4.789c0,2.605,0.902,4.808,2.71,6.602
	c1.807,1.797,3.984,2.694,6.533,2.694c1.702,0,3.278-0.411,4.726-1.237c1.448-0.826,2.578-1.955,3.39-3.387
	c0.812-1.434,1.219-3.025,1.219-4.775c0-1.74-0.407-3.315-1.219-4.723c-0.812-1.408-1.954-2.535-3.426-3.38
	C189.373,24.524,187.811,24.102,186.158,24.102z"/>
<path fill="#FFFFFF" d="M203.698,44.453V22.521h0.478l14.596,16.812V22.521h2.162v21.932h-0.492l-14.479-16.607v16.607H203.698z"/>
<path fill="#FFFFFF" d="M227.813,44.453V22.521h0.478l14.596,16.812V22.521h2.162v21.932h-0.492l-14.479-16.607v16.607H227.813z"/>
<path fill="#FFFFFF" d="M251.927,22.521h12.568v2.147h-10.377v6.873h10.288v2.148h-10.288v8.615h10.288v2.148h-12.479V22.521z"/>
<path fill="#FFFFFF" d="M290.235,26.591l-1.731,1.327c-0.952-1.242-2.1-2.184-3.437-2.825c-1.336-0.641-2.804-0.961-4.405-0.961
	c-1.75,0-3.369,0.419-4.859,1.26c-1.492,0.84-2.647,1.968-3.468,3.384c-0.819,1.416-1.229,3.01-1.229,4.779
	c0,2.673,0.918,4.904,2.75,6.693c1.834,1.789,4.148,2.684,6.94,2.684c3.073,0,5.643-1.202,7.708-3.609l1.731,1.313
	c-1.095,1.393-2.458,2.469-4.093,3.229c-1.637,0.761-3.463,1.141-5.48,1.141c-3.836,0-6.862-1.276-9.08-3.831
	c-1.857-2.157-2.786-4.763-2.786-7.812c0-3.211,1.125-5.912,3.375-8.104c2.253-2.191,5.071-3.287,8.461-3.287
	c2.048,0,3.896,0.405,5.548,1.215C287.828,23.995,289.181,25.13,290.235,26.591z"/>
<path fill="#FFFFFF" d="M293.982,24.668v-2.147H306v2.147h-4.89v19.785h-2.237V24.668H293.982z"/>
<path fill="#FFFFFF" d="M310.374,22.521h2.191v21.932h-2.191V22.521z"/>
<path fill="#FFFFFF" d="M329.561,21.97c3.322,0,6.103,1.108,8.341,3.324c2.238,2.217,3.357,4.945,3.357,8.186
	c0,3.21-1.118,5.935-3.351,8.169c-2.233,2.237-4.955,3.355-8.168,3.355c-3.253,0-5.998-1.113-8.234-3.34
	c-2.238-2.226-3.356-4.92-3.356-8.08c0-2.107,0.51-4.061,1.528-5.859c1.02-1.799,2.409-3.208,4.17-4.228
	C325.608,22.479,327.513,21.97,329.561,21.97z M329.658,24.102c-1.623,0-3.16,0.423-4.615,1.269
	c-1.453,0.845-2.587,1.984-3.404,3.417c-0.816,1.433-1.225,3.028-1.225,4.789c0,2.605,0.904,4.808,2.71,6.602
	c1.808,1.797,3.985,2.694,6.534,2.694c1.703,0,3.277-0.411,4.727-1.237c1.448-0.826,2.579-1.955,3.391-3.387
	c0.811-1.434,1.216-3.025,1.216-4.775c0-1.74-0.405-3.315-1.216-4.723c-0.812-1.408-1.954-2.535-3.428-3.38
	C332.874,24.524,331.311,24.102,329.658,24.102z"/>
<path fill="#FFFFFF" d="M347.197,44.453V22.521h0.478l14.596,16.812V22.521h2.162v21.932h-0.492l-14.478-16.607v16.607H347.197z"/>
<g>
	<path fill="#FFFFFF" d="M30.161,21.109l1.273-2.64h1.163l0.479,10.983H31.84c-0.812-3.088-1.834-5.365-3.064-6.83
		c-1.525-1.833-3.346-2.75-5.464-2.75c-2.288,0-4.151,1.021-5.593,3.064c-1.439,2.043-2.159,5.501-2.159,10.374
		c0,4.1,0.824,7.225,2.473,9.379c1.403,1.82,3.372,2.73,5.908,2.73c2.215,0,4.074-0.709,5.574-2.131
		c1.503-1.422,2.481-3.566,2.936-6.434h1.311c-0.382,3.25-1.496,5.747-3.341,7.494c-1.846,1.748-4.172,2.623-6.977,2.623
		c-2.278,0-4.367-0.574-6.267-1.717c-1.901-1.146-3.421-2.793-4.56-4.939c-1.138-2.148-1.707-4.5-1.707-7.061
		c0-2.719,0.587-5.273,1.763-7.66c1.175-2.388,2.679-4.182,4.513-5.381c1.833-1.2,3.809-1.8,5.925-1.8
		c1.181,0,2.326,0.203,3.434,0.608C27.65,19.43,28.856,20.125,30.161,21.109z"/>
	<path fill="#FFFFFF" d="M55.099,44.387l0.665,1.033c-0.899,0.924-1.896,1.385-2.991,1.385c-0.836,0-1.541-0.229-2.112-0.682
		c-0.573-0.456-1.075-1.258-1.506-2.4c-1.169,1.23-2.196,2.051-3.082,2.465c-0.885,0.411-1.951,0.617-3.193,0.617
		c-1.772,0-3.12-0.381-4.043-1.145c-0.923-0.762-1.384-1.74-1.384-2.935c0-1.798,1.056-3.288,3.166-4.477
		c2.111-1.188,4.919-1.979,8.427-2.372v-2.621c0-0.936-0.376-1.734-1.126-2.4c-0.75-0.664-1.705-0.996-2.861-0.996
		c-1.071,0-1.994,0.222-2.769,0.665c-0.554,0.331-0.831,0.658-0.831,0.978c0,0.186,0.146,0.473,0.442,0.869
		c0.357,0.492,0.536,0.928,0.536,1.309c0,0.555-0.179,1.007-0.536,1.357c-0.357,0.352-0.823,0.527-1.403,0.527
		c-0.615,0-1.128-0.21-1.541-0.629c-0.413-0.418-0.618-0.953-0.618-1.605c0-1.219,0.686-2.332,2.058-3.342
		c1.373-1.009,3.171-1.514,5.399-1.514c2.055,0,3.624,0.443,4.707,1.33c1.084,0.897,1.626,1.986,1.626,3.266v9.451
		c0,0.838,0.135,1.453,0.404,1.846c0.272,0.408,0.621,0.609,1.053,0.609C54.064,44.977,54.57,44.781,55.099,44.387z M49.044,37.096
		c-3.126,0.432-5.341,1.131-6.646,2.104c-0.973,0.738-1.458,1.785-1.458,3.139c0,0.949,0.252,1.689,0.757,2.225
		c0.504,0.535,1.163,0.803,1.975,0.803c1.452,0,2.71-0.551,3.775-1.652c1.065-1.1,1.597-2.482,1.597-4.145V37.096z"/>
</g>
<g>
	<path fill="#FFFFFF" d="M97.479,37.76H85.093c0.062,2.634,0.554,4.492,1.477,5.575c1.06,1.218,2.407,1.827,4.043,1.827
		c2.411,0,4.351-1.371,5.815-4.117l1.199,0.518c-1.797,3.495-4.393,5.242-7.789,5.242c-2.313,0-4.262-0.838-5.844-2.51
		c-1.58-1.674-2.37-3.814-2.37-6.426c0-2.803,0.776-5.07,2.335-6.801c1.556-1.729,3.472-2.594,5.75-2.594
		c1.672,0,3.118,0.432,4.337,1.292c1.219,0.862,2.136,2.099,2.751,3.712C97.228,34.609,97.455,36.037,97.479,37.76z M85.093,36.449
		h7.494c0.444,0,0.788-0.15,1.034-0.451c0.246-0.303,0.369-0.814,0.369-1.541c0-1.354-0.422-2.506-1.264-3.453
		c-0.843-0.947-1.836-1.422-2.981-1.422c-1.28,0-2.366,0.573-3.258,1.717C85.594,32.443,85.131,34.16,85.093,36.449z"/>
	<path fill="#FFFFFF" d="M116.382,37.76h-12.387c0.062,2.634,0.554,4.492,1.477,5.575c1.06,1.218,2.407,1.827,4.043,1.827
		c2.411,0,4.351-1.371,5.815-4.117l1.199,0.518c-1.797,3.495-4.393,5.242-7.789,5.242c-2.313,0-4.262-0.838-5.844-2.51
		c-1.58-1.674-2.37-3.814-2.37-6.426c0-2.803,0.776-5.07,2.335-6.801c1.556-1.729,3.472-2.594,5.75-2.594
		c1.672,0,3.118,0.432,4.337,1.292c1.219,0.862,2.136,2.099,2.751,3.712C116.13,34.609,116.357,36.037,116.382,37.76z
		 M103.995,36.449h7.494c0.444,0,0.788-0.15,1.034-0.451c0.246-0.303,0.369-0.814,0.369-1.541c0-1.354-0.422-2.506-1.264-3.453
		c-0.843-0.947-1.836-1.422-2.981-1.422c-1.28,0-2.366,0.573-3.258,1.717C104.496,32.443,104.033,34.16,103.995,36.449z"/>
	<path fill="#FFFFFF" d="M118.781,28.992l6.221-0.314v6.996c0.664-2.301,1.464-4.041,2.4-5.224c0.936-1.182,2.093-1.772,3.47-1.772
		c0.935,0,1.683,0.286,2.244,0.858c0.56,0.573,0.838,1.339,0.838,2.298c0,0.777-0.188,1.379-0.563,1.81s-0.847,0.646-1.412,0.646
		c-0.554,0-0.999-0.184-1.339-0.553c-0.337-0.369-0.507-0.867-0.507-1.494c0-0.408,0.1-0.789,0.296-1.146
		c0.185-0.319,0.277-0.51,0.277-0.571c0-0.185-0.117-0.277-0.351-0.277c-0.505,0-1.078,0.296-1.717,0.886
		c-0.888,0.824-1.57,1.957-2.051,3.396c-0.738,2.24-1.107,4.031-1.107,5.372v3.71c0,0.42,0.149,0.738,0.444,0.96
		c0.294,0.222,0.799,0.333,1.513,0.333h2.197v1.384h-10.743v-1.384h1.717c0.577,0,1.016-0.115,1.31-0.342
		c0.296-0.227,0.444-0.502,0.444-0.822v-11.02c0-0.836-0.18-1.449-0.535-1.837c-0.357-0.388-0.869-0.581-1.532-0.581h-1.515V28.992z
		"/>
</g>
</svg>
