<?xml version="1.0" encoding="utf-8"?>
<!-- Generator: Adobe Illustrator 15.1.0, SVG Export Plug-In . SVG Version: 6.00 Build 0)  -->
<!DOCTYPE svg PUBLIC "-//W3C//DTD SVG 1.0//EN" "http://www.w3.org/TR/2001/REC-SVG-20010904/DTD/svg10.dtd">
<svg version="1.0" id="Layer_1" xmlns="http://www.w3.org/2000/svg" xmlns:xlink="http://www.w3.org/1999/xlink" x="0px" y="0px"
	 width="393.196px" height="56.385px" viewBox="0 0 393.196 56.385" enable-background="new 0 0 393.196 56.385"
	 xml:space="preserve">
<rect y="15.479" fill="#010101" width="199.796" height="40.906"/>
<rect x="171.993" y="15.479" fill="#CB6828" width="221.204" height="40.906"/>
<path fill-rule="evenodd" clip-rule="evenodd" fill="#CB6828" d="M39.747,0c-0.609,3.876,3.318,5.971,4.6,2.757
	c-0.571,5.783,2.643,7.781,2.759,12.876c4.647-3.016,13.524-1.802,13.796-9.196c1.093,2.892,1.324,6.645,4.597,7.358
	c-6.308-1.976-10.163,0.634-11.956,5.518c0.463,9.869,14.78,2.278,16.552,4.597c-1.6-0.07-2.859,0.207-3.677,0.92
	c-0.551,1.638,2.695,3.82,0,4.598c0.038-1.266-0.434-2.02-0.92-2.76c-10.502-1.317-18.105,5.888-10.117,12.876
	c2.76,0,5.52,0,8.277,0c0.032,1.677-8.926,0.335-6.436,5.518c-2.514-5.766-8.506-8.045-12.876-11.956
	c-2.983,1.614-4.597,4.599-6.438,7.356c-0.738,3.19,1.369,3.536,0.918,6.438c-0.306,0-0.61,0-0.918,0
	c0.378-2.216-1.681-1.999-0.919-4.598c-1.738-0.205-2.03,1.035-3.68,0.92c3.272-2.552,3.747-7.901,5.517-11.956
	c-1.969-5.171-13.539-3.083-11.954,3.68c-1.531-0.92-0.652-4.254-2.759-4.599c4.397-2.652,7.541-6.561,12.876-8.276
	c-1.386-3.52-3.809-6.001-6.439-8.276c-2.83-0.687-1.765,2.524-4.597,1.838c0.8-1.346,1.377-2.915,3.679-2.76
	c0.021-2.167-1.584-2.707-0.919-5.517c0.925,2.162,6.564,7.521,10.113,10.116c9.431-3.1-0.896-14.452,0-17.473
	C39.138,0,39.442,0,39.747,0z M46.187,29.427c2.379-1.299,4.385-2.972,3.677-7.356C43.09,15.293,36.223,28.989,46.187,29.427z"/>
<g>
	<path fill="#FFFFFF" d="M11.249,21.769h14.169c2.103,0,3.889,0.371,5.36,1.112c1.829,0.94,3.384,2.505,4.665,4.693
		c1.28,2.188,1.919,4.778,1.919,7.771c0,2.475-0.384,4.698-1.149,6.678c-0.582,1.521-1.476,2.85-2.68,3.988
		c-1.206,1.137-2.674,1.989-4.406,2.558c-1.298,0.422-3.029,0.632-5.192,0.632H11.249V47.81h2.596c0.655,0,1.11-0.105,1.363-0.316
		c0.254-0.211,0.38-0.537,0.38-0.982V24.422c0-0.384-0.136-0.69-0.408-0.918c-0.272-0.229-0.649-0.344-1.132-0.344h-2.8V21.769z
		 M21.189,23.159c-0.556,0-0.968,0.119-1.233,0.353c-0.266,0.236-0.398,0.587-0.398,1.058v21.884c0,0.445,0.154,0.783,0.463,1.012
		c0.309,0.229,0.835,0.344,1.577,0.344h2.337c2.089,0,3.919-0.539,5.49-1.614c1.026-0.718,1.805-1.726,2.336-3.023
		c0.729-1.755,1.095-4.179,1.095-7.271c0-4.574-0.798-7.926-2.393-10.053c-1.36-1.793-3.413-2.689-6.157-2.689H21.189z"/>
	<path fill="#FFFFFF" d="M40.404,31.822l6.918-0.205v14.948c0,0.409,0.099,0.699,0.296,0.872c0.284,0.247,0.643,0.372,1.076,0.372
		h1.966V49.2h-9.885V47.81h1.836c0.544,0,0.942-0.133,1.196-0.4c0.253-0.265,0.381-0.651,0.381-1.158V35.309
		c0-0.692-0.199-1.216-0.594-1.567s-0.982-0.529-1.761-0.529h-1.428V31.822z M45.227,21.454c0.556,0,1.044,0.211,1.465,0.63
		c0.42,0.422,0.631,0.916,0.631,1.484c0,0.557-0.204,1.039-0.612,1.447s-0.896,0.611-1.465,0.611c-0.569,0-1.061-0.205-1.475-0.621
		c-0.415-0.413-0.621-0.899-0.621-1.456s0.209-1.043,0.63-1.465C44.2,21.665,44.683,21.454,45.227,21.454z"/>
	<path fill="#FFFFFF" d="M54.796,42.653c0.767,2.139,1.647,3.618,2.643,4.441s2.224,1.233,3.683,1.233
		c1.348,0,2.382-0.293,3.105-0.882c0.724-0.586,1.085-1.332,1.085-2.234c0-0.52-0.133-0.974-0.4-1.363s-0.636-0.68-1.104-0.871
		c-0.472-0.192-1.692-0.474-3.662-0.844c-1.883-0.371-3.196-0.761-3.938-1.168c-0.742-0.408-1.321-0.971-1.735-1.689
		c-0.415-0.716-0.622-1.495-0.622-2.336c0-1.274,0.427-2.429,1.282-3.469c1.102-1.322,2.643-1.983,4.624-1.983
		c1.512,0,2.911,0.475,4.198,1.427l1.226-1.298h0.762l0.482,6.194h-1.242c-0.545-1.756-1.282-3.019-2.212-3.792
		c-0.929-0.773-2.074-1.16-3.437-1.16c-1.178,0-2.101,0.287-2.769,0.862c-0.67,0.576-1.004,1.277-1.004,2.105
		c0,0.729,0.31,1.336,0.929,1.818c0.607,0.494,1.797,0.885,3.568,1.17c2.057,0.349,3.394,0.639,4.014,0.876
		c1.014,0.37,1.8,0.942,2.358,1.714c0.557,0.773,0.835,1.714,0.835,2.827c0,1.532-0.604,2.83-1.811,3.892
		c-1.208,1.064-2.739,1.596-4.597,1.596c-1.721,0-3.319-0.568-4.792-1.708l-1.355,1.559h-0.983l-0.372-6.917H54.796z"/>
	<path fill="#FFFFFF" d="M86.586,40.632H74.141c0.062,2.646,0.557,4.512,1.482,5.6c1.063,1.225,2.418,1.836,4.063,1.836
		c2.423,0,4.37-1.377,5.842-4.135l1.206,0.52c-1.806,3.512-4.414,5.268-7.827,5.268c-2.325,0-4.282-0.841-5.871-2.522
		c-1.588-1.682-2.382-3.833-2.382-6.454c0-2.82,0.782-5.098,2.345-6.835c1.564-1.737,3.491-2.606,5.777-2.606
		c1.682,0,3.135,0.433,4.358,1.299c1.225,0.865,2.146,2.107,2.764,3.728C86.332,37.466,86.56,38.9,86.586,40.632z M74.141,39.313
		h7.529c0.445,0,0.791-0.149,1.04-0.454c0.246-0.302,0.369-0.817,0.369-1.548c0-1.361-0.422-2.516-1.269-3.468
		c-0.848-0.952-1.846-1.43-2.997-1.43c-1.286,0-2.376,0.575-3.272,1.726S74.178,37.014,74.141,39.313z"/>
	<path fill="#FFFFFF" d="M107.636,47.29l0.668,1.038c-0.902,0.927-1.904,1.392-3.006,1.392c-0.841,0-1.547-0.23-2.123-0.688
		s-1.08-1.261-1.512-2.41c-1.175,1.236-2.208,2.061-3.098,2.477c-0.889,0.413-1.96,0.621-3.208,0.621
		c-1.781,0-3.135-0.384-4.061-1.151c-0.929-0.765-1.392-1.749-1.392-2.947c0-1.806,1.061-3.305,3.18-4.499
		c2.12-1.193,4.944-1.987,8.467-2.383v-2.634c0-0.938-0.376-1.743-1.132-2.411c-0.753-0.668-1.711-1.002-2.874-1.002
		c-1.075,0-2.002,0.223-2.782,0.668c-0.557,0.334-0.833,0.662-0.833,0.984c0,0.185,0.146,0.475,0.444,0.87
		c0.359,0.495,0.538,0.935,0.538,1.318c0,0.556-0.179,1.011-0.538,1.362s-0.828,0.529-1.409,0.529c-0.62,0-1.135-0.21-1.548-0.632
		c-0.415-0.419-0.621-0.958-0.621-1.612c0-1.225,0.688-2.343,2.068-3.357c1.377-1.014,3.186-1.521,5.423-1.521
		c2.065,0,3.642,0.445,4.731,1.335c1.087,0.903,1.632,1.998,1.632,3.284v9.495c0,0.841,0.135,1.459,0.407,1.854
		c0.272,0.408,0.624,0.612,1.058,0.612C106.598,47.883,107.104,47.685,107.636,47.29z M101.553,39.964
		c-3.141,0.434-5.366,1.137-6.677,2.113c-0.977,0.743-1.465,1.793-1.465,3.154c0,0.952,0.253,1.696,0.76,2.234
		c0.507,0.537,1.169,0.807,1.983,0.807c1.459,0,2.725-0.554,3.794-1.66c1.069-1.105,1.604-2.494,1.604-4.164V39.964z"/>
	<path fill="#FFFFFF" d="M112.495,42.653c0.766,2.139,1.648,3.618,2.643,4.441s2.222,1.233,3.681,1.233
		c1.348,0,2.385-0.293,3.108-0.882c0.722-0.586,1.084-1.332,1.084-2.234c0-0.52-0.133-0.974-0.4-1.363
		c-0.265-0.39-0.634-0.68-1.106-0.871c-0.47-0.192-1.69-0.474-3.661-0.844c-1.882-0.371-3.195-0.761-3.939-1.168
		c-0.741-0.408-1.321-0.971-1.734-1.689c-0.416-0.716-0.621-1.495-0.621-2.336c0-1.274,0.426-2.429,1.28-3.469
		c1.102-1.322,2.644-1.983,4.626-1.983c1.51,0,2.909,0.475,4.197,1.427l1.226-1.298h0.762l0.483,6.194h-1.242
		c-0.546-1.756-1.283-3.019-2.212-3.792s-2.076-1.16-3.438-1.16c-1.178,0-2.101,0.287-2.77,0.862
		c-0.668,0.576-1.002,1.277-1.002,2.105c0,0.729,0.308,1.336,0.929,1.818c0.606,0.494,1.796,0.885,3.567,1.17
		c2.055,0.349,3.394,0.639,4.012,0.876c1.017,0.37,1.802,0.942,2.358,1.714c0.557,0.773,0.835,1.714,0.835,2.827
		c0,1.532-0.604,2.83-1.811,3.892c-1.207,1.064-2.739,1.596-4.595,1.596c-1.721,0-3.318-0.568-4.792-1.708l-1.356,1.559h-0.984
		l-0.372-6.917H112.495z"/>
	<path fill="#FFFFFF" d="M144.284,40.632H131.84c0.062,2.646,0.555,4.512,1.484,5.6c1.063,1.225,2.417,1.836,4.061,1.836
		c2.424,0,4.371-1.377,5.843-4.135l1.206,0.52c-1.805,3.512-4.415,5.268-7.827,5.268c-2.325,0-4.282-0.841-5.87-2.522
		c-1.589-1.682-2.385-3.833-2.385-6.454c0-2.82,0.782-5.098,2.347-6.835s3.489-2.606,5.777-2.606c1.682,0,3.135,0.433,4.359,1.299
		c1.223,0.865,2.145,2.107,2.763,3.728C144.032,37.466,144.26,38.9,144.284,40.632z M131.84,39.313h7.531
		c0.444,0,0.791-0.149,1.037-0.454c0.248-0.302,0.372-0.817,0.372-1.548c0-1.361-0.425-2.516-1.271-3.468s-1.846-1.43-2.994-1.43
		c-1.286,0-2.379,0.575-3.274,1.726C132.342,35.29,131.876,37.014,131.84,39.313z"/>
	<path fill="#FFFFFF" d="M149.069,42.653c0.766,2.139,1.648,3.618,2.643,4.441s2.222,1.233,3.681,1.233
		c1.348,0,2.385-0.293,3.108-0.882c0.722-0.586,1.084-1.332,1.084-2.234c0-0.52-0.133-0.974-0.4-1.363
		c-0.265-0.39-0.634-0.68-1.106-0.871c-0.47-0.192-1.69-0.474-3.661-0.844c-1.882-0.371-3.195-0.761-3.939-1.168
		c-0.741-0.408-1.321-0.971-1.734-1.689c-0.416-0.716-0.621-1.495-0.621-2.336c0-1.274,0.426-2.429,1.28-3.469
		c1.102-1.322,2.644-1.983,4.626-1.983c1.51,0,2.909,0.475,4.197,1.427l1.226-1.298h0.762l0.483,6.194h-1.242
		c-0.546-1.756-1.283-3.019-2.212-3.792s-2.076-1.16-3.438-1.16c-1.178,0-2.101,0.287-2.77,0.862
		c-0.668,0.576-1.002,1.277-1.002,2.105c0,0.729,0.308,1.336,0.929,1.818c0.606,0.494,1.796,0.885,3.567,1.17
		c2.055,0.349,3.394,0.639,4.012,0.876c1.017,0.37,1.802,0.942,2.358,1.714c0.557,0.773,0.835,1.714,0.835,2.827
		c0,1.532-0.604,2.83-1.811,3.892c-1.207,1.064-2.739,1.596-4.595,1.596c-1.721,0-3.318-0.568-4.792-1.708l-1.356,1.559h-0.984
		l-0.372-6.917H149.069z"/>
</g>
<g>
	<path fill="#FFFFFF" d="M195.977,27.338c3.339,0,6.13,1.113,8.379,3.34c2.249,2.227,3.374,4.969,3.374,8.223
		c0,3.227-1.123,5.963-3.367,8.209c-2.244,2.248-4.977,3.373-8.206,3.373c-3.268,0-6.026-1.119-8.275-3.357
		c-2.249-2.236-3.372-4.943-3.372-8.119c0-2.117,0.512-4.079,1.537-5.887c1.024-1.808,2.42-3.224,4.189-4.247
		C192.004,27.85,193.918,27.338,195.977,27.338z M196.075,29.48c-1.632,0-3.176,0.425-4.638,1.275c-1.459,0.85-2.6,1.994-3.42,3.434
		c-0.82,1.438-1.23,3.042-1.23,4.812c0,2.618,0.908,4.829,2.723,6.634c1.816,1.805,4.005,2.706,6.565,2.706
		c1.709,0,3.293-0.415,4.749-1.243c1.455-0.83,2.59-1.965,3.404-3.404c0.816-1.439,1.225-3.039,1.225-4.797
		c0-1.748-0.408-3.33-1.225-4.746c-0.814-1.414-1.963-2.545-3.441-3.395C199.305,29.905,197.734,29.48,196.075,29.48z"/>
	<path fill="#FFFFFF" d="M213.683,27.892h11.039v2.156h-8.838v6.907h8.838v2.157h-8.838v10.815h-2.201V27.892z"/>
	<path fill="#FFFFFF" d="M242.229,30.048v-2.156h12.072v2.156h-4.912v19.879h-2.248V30.048H242.229z"/>
	<path fill="#FFFFFF" d="M258.982,27.892h2.202v9.244h11.221v-9.244h2.201v22.036h-2.201V39.292h-11.221v10.636h-2.202V27.892z"/>
	<path fill="#FFFFFF" d="M281.519,27.892h12.627v2.156h-10.425v6.907h10.336v2.157h-10.336v8.658h10.336v2.157h-12.538V27.892z"/>
	<path fill="#FFFFFF" d="M303.438,45.22c0.727,0,1.348,0.256,1.861,0.771s0.77,1.142,0.77,1.882c0,0.729-0.256,1.354-0.77,1.874
		s-1.135,0.78-1.861,0.78c-0.729,0-1.349-0.26-1.863-0.78c-0.512-0.521-0.77-1.146-0.77-1.874c0-0.74,0.258-1.367,0.77-1.882
		C302.09,45.476,302.71,45.22,303.438,45.22z"/>
	<path fill="#FFFFFF" d="M317.764,45.22c0.728,0,1.348,0.256,1.862,0.771c0.512,0.515,0.77,1.142,0.77,1.882
		c0,0.729-0.258,1.354-0.77,1.874c-0.515,0.521-1.135,0.78-1.862,0.78s-1.349-0.26-1.862-0.78s-0.77-1.146-0.77-1.874
		c0-0.74,0.256-1.367,0.77-1.882S317.036,45.22,317.764,45.22z"/>
	<path fill="#FFFFFF" d="M332.089,45.22c0.728,0,1.348,0.256,1.863,0.771c0.512,0.515,0.769,1.142,0.769,1.882
		c0,0.729-0.257,1.354-0.769,1.874c-0.516,0.521-1.136,0.78-1.863,0.78c-0.727,0-1.348-0.26-1.861-0.78
		c-0.516-0.521-0.77-1.146-0.77-1.874c0-0.74,0.254-1.367,0.77-1.882C330.741,45.476,331.362,45.22,332.089,45.22z"/>
</g>
</svg>
