<?xml version="1.0" encoding="utf-8"?>
<!-- Generator: Adobe Illustrator 15.1.0, SVG Export Plug-In . SVG Version: 6.00 Build 0)  -->
<!DOCTYPE svg PUBLIC "-//W3C//DTD SVG 1.0//EN" "http://www.w3.org/TR/2001/REC-SVG-20010904/DTD/svg10.dtd">
<svg version="1.0" id="Layer_1" xmlns="http://www.w3.org/2000/svg" xmlns:xlink="http://www.w3.org/1999/xlink" x="0px" y="0px"
	 width="393.783px" height="56.271px" viewBox="0 0 393.783 56.271" enable-background="new 0 0 393.783 56.271"
	 xml:space="preserve">
<rect y="17.706" fill="#010101" width="190.19" height="38.565"/>
<g>
	<path fill="#FFFFFF" d="M44.745,33.455l6.522-0.192v14.093c0,0.386,0.093,0.66,0.28,0.824c0.268,0.23,0.604,0.348,1.014,0.348
		h1.853v1.313h-9.319v-1.313h1.73c0.514,0,0.889-0.124,1.128-0.375c0.238-0.252,0.358-0.615,0.358-1.092V36.742
		c0-0.654-0.186-1.146-0.56-1.477c-0.373-0.333-0.927-0.498-1.661-0.498h-1.346V33.455z M49.292,23.679
		c0.524,0,0.984,0.198,1.381,0.595c0.396,0.397,0.595,0.863,0.595,1.399c0,0.524-0.193,0.979-0.577,1.364
		c-0.385,0.385-0.845,0.577-1.381,0.577c-0.538,0-1.001-0.195-1.391-0.586c-0.391-0.391-0.586-0.848-0.586-1.373
		s0.198-0.984,0.595-1.381C48.323,23.877,48.777,23.679,49.292,23.679z"/>
	<path fill="#FFFFFF" d="M58.315,43.667c0.722,2.016,1.553,3.412,2.491,4.186c0.938,0.777,2.095,1.164,3.472,1.164
		c1.271,0,2.247-0.275,2.93-0.83c0.683-0.553,1.022-1.256,1.022-2.107c0-0.49-0.126-0.918-0.378-1.285
		c-0.249-0.367-0.598-0.641-1.043-0.822c-0.442-0.181-1.594-0.445-3.451-0.795c-1.775-0.352-3.012-0.717-3.712-1.102
		c-0.7-0.387-1.245-0.916-1.637-1.592c-0.391-0.676-0.586-1.41-0.586-2.203c0-1.199,0.403-2.291,1.209-3.271
		c1.038-1.246,2.491-1.87,4.36-1.87c1.424,0,2.745,0.45,3.958,1.347l1.157-1.224h0.718l0.454,5.841h-1.172
		c-0.513-1.656-1.21-2.848-2.086-3.578c-0.876-0.727-1.954-1.092-3.24-1.092c-1.11,0-1.98,0.271-2.61,0.814
		c-0.63,0.541-0.947,1.203-0.947,1.984c0,0.688,0.293,1.258,0.876,1.713c0.571,0.467,1.693,0.834,3.363,1.104
		c1.939,0.328,3.199,0.604,3.785,0.825c0.955,0.351,1.696,0.89,2.221,1.617c0.527,0.728,0.788,1.616,0.788,2.665
		c0,1.443-0.568,2.668-1.708,3.67c-1.137,1.002-2.581,1.504-4.333,1.504c-1.623,0-3.129-0.537-4.518-1.609l-1.278,1.469h-0.928
		l-0.35-6.521H58.315z"/>
	<path fill="#FFFFFF" d="M80.646,32.964c2.203,0,4.055,0.796,5.552,2.389c1.497,1.59,2.247,3.686,2.247,6.285
		c0,1.795-0.337,3.325-1.005,4.59c-0.671,1.266-1.626,2.264-2.868,3c-1.242,0.734-2.581,1.102-4.014,1.102
		c-2.121,0-3.92-0.807-5.394-2.414c-1.477-1.609-2.212-3.695-2.212-6.26c0-2.576,0.738-4.668,2.221-6.278
		C76.653,33.769,78.478,32.964,80.646,32.964z M80.646,34.207c-1.307,0-2.379,0.592-3.217,1.774c-0.841,1.184-1.26,3.052-1.26,5.604
		c0,2.6,0.416,4.5,1.251,5.699c0.832,1.201,1.907,1.803,3.226,1.803c1.362,0,2.467-0.602,3.313-1.803
		c0.844-1.199,1.269-3.164,1.269-5.891c0-2.53-0.419-4.359-1.251-5.49C83.142,34.773,82.032,34.207,80.646,34.207z"/>
	<path fill="#FFFFFF" d="M90.56,33.455l5.895-0.298v6.628c0.627-2.18,1.386-3.83,2.273-4.949c0.885-1.119,1.98-1.679,3.287-1.679
		c0.885,0,1.594,0.271,2.124,0.813c0.53,0.541,0.794,1.268,0.794,2.176c0,0.736-0.176,1.307-0.533,1.715
		c-0.354,0.408-0.8,0.611-1.336,0.611c-0.524,0-0.949-0.174-1.269-0.523s-0.48-0.822-0.48-1.417c0-0.386,0.094-0.745,0.278-1.084
		c0.176-0.304,0.264-0.483,0.264-0.542c0-0.174-0.111-0.262-0.331-0.262c-0.48,0-1.022,0.279-1.629,0.839
		c-0.838,0.78-1.485,1.853-1.939,3.218c-0.7,2.121-1.049,3.818-1.049,5.088v3.514c0,0.397,0.141,0.701,0.419,0.912
		c0.281,0.207,0.759,0.313,1.433,0.313h2.083v1.313H90.666v-1.313h1.626c0.548,0,0.961-0.107,1.242-0.322
		c0.278-0.217,0.419-0.476,0.419-0.779V36.988c0-0.795-0.17-1.375-0.507-1.74c-0.337-0.368-0.823-0.551-1.45-0.551H90.56V33.455z"/>
	<path fill="#FFFFFF" d="M116.004,23.977l6.398-0.297v22.418c0,0.875,0.167,1.498,0.498,1.871c0.334,0.373,0.832,0.559,1.497,0.559
		h1.137v1.313h-5.596l-0.422-3.34c-0.665,1.188-1.441,2.084-2.335,2.684c-0.891,0.602-1.89,0.9-2.997,0.9
		c-1.866,0-3.454-0.779-4.767-2.343c-1.31-1.563-1.966-3.626-1.966-6.19c0-2.774,0.838-4.989,2.517-6.645
		c1.318-1.293,2.833-1.941,4.547-1.941c1.049,0,1.992,0.263,2.824,0.787c0.835,0.524,1.559,1.316,2.177,2.377V26.88
		c0-0.489-0.188-0.877-0.568-1.163c-0.378-0.286-0.97-0.428-1.775-0.428h-1.169V23.977z M114.988,34.416
		c-1.257,0-2.259,0.52-2.997,1.557c-0.741,1.039-1.11,2.787-1.11,5.246c0,2.67,0.378,4.549,1.137,5.639
		c0.756,1.09,1.731,1.635,2.918,1.635c1.271,0,2.358-0.609,3.264-1.826c0.902-1.217,1.354-2.998,1.354-5.342
		c0-2.215-0.483-3.959-1.45-5.23C117.261,34.974,116.224,34.416,114.988,34.416z"/>
	<path fill="#FFFFFF" d="M142.653,41.759h-11.733c0.059,2.496,0.524,4.258,1.397,5.283c1.002,1.154,2.279,1.73,3.829,1.73
		c2.285,0,4.122-1.301,5.508-3.898l1.137,0.488c-1.702,3.311-4.16,4.967-7.377,4.967c-2.194,0-4.037-0.795-5.534-2.379
		c-1.5-1.586-2.247-3.613-2.247-6.086c0-2.656,0.735-4.805,2.212-6.443c1.474-1.638,3.29-2.457,5.446-2.457
		c1.585,0,2.956,0.408,4.107,1.225c1.154,0.814,2.024,1.986,2.607,3.515C142.413,38.776,142.629,40.128,142.653,41.759z
		 M130.919,40.519h7.099c0.419,0,0.747-0.143,0.979-0.43c0.234-0.283,0.352-0.77,0.352-1.459c0-1.283-0.401-2.373-1.198-3.27
		c-0.8-0.898-1.74-1.348-2.824-1.348c-1.213,0-2.241,0.543-3.088,1.627C131.394,36.724,130.955,38.349,130.919,40.519z"/>
	<path fill="#FFFFFF" d="M144.926,33.455l5.892-0.298v6.628c0.63-2.18,1.389-3.83,2.273-4.949s1.98-1.679,3.287-1.679
		c0.885,0,1.594,0.271,2.124,0.813c0.53,0.541,0.797,1.268,0.797,2.176c0,0.736-0.179,1.307-0.533,1.715
		c-0.357,0.408-0.803,0.611-1.339,0.611c-0.524,0-0.946-0.174-1.266-0.523c-0.322-0.35-0.483-0.822-0.483-1.417
		c0-0.386,0.094-0.745,0.281-1.084c0.176-0.304,0.261-0.483,0.261-0.542c0-0.174-0.108-0.262-0.331-0.262
		c-0.478,0-1.02,0.279-1.626,0.839c-0.841,0.78-1.485,1.853-1.942,3.218c-0.697,2.121-1.049,3.818-1.049,5.088v3.514
		c0,0.397,0.141,0.701,0.422,0.912c0.278,0.207,0.756,0.313,1.433,0.313h2.08v1.313h-10.178v-1.313h1.629
		c0.548,0,0.961-0.107,1.239-0.322c0.281-0.217,0.422-0.476,0.422-0.779V36.988c0-0.795-0.17-1.375-0.51-1.74
		c-0.337-0.368-0.82-0.551-1.45-0.551h-1.433V33.455z"/>
	<path fill="#FFFFFF" d="M163.058,43.667c0.724,2.016,1.553,3.412,2.493,4.186c0.938,0.777,2.095,1.164,3.469,1.164
		c1.271,0,2.247-0.275,2.93-0.83c0.683-0.553,1.022-1.256,1.022-2.107c0-0.49-0.126-0.918-0.375-1.285
		c-0.252-0.367-0.601-0.641-1.043-0.822c-0.445-0.181-1.594-0.445-3.451-0.795c-1.775-0.352-3.015-0.717-3.715-1.102
		c-0.7-0.387-1.245-0.916-1.635-1.592c-0.393-0.676-0.586-1.41-0.586-2.203c0-1.199,0.401-2.291,1.207-3.271
		c1.04-1.246,2.493-1.87,4.362-1.87c1.424,0,2.742,0.45,3.955,1.347l1.157-1.224h0.718l0.457,5.841h-1.172
		c-0.516-1.656-1.21-2.848-2.086-3.578c-0.876-0.727-1.957-1.092-3.24-1.092c-1.11,0-1.98,0.271-2.613,0.814
		c-0.63,0.541-0.946,1.203-0.946,1.984c0,0.688,0.293,1.258,0.876,1.713c0.574,0.467,1.696,0.834,3.366,1.104
		c1.937,0.328,3.199,0.604,3.782,0.825c0.958,0.351,1.699,0.89,2.224,1.617s0.788,1.616,0.788,2.665c0,1.443-0.568,2.668-1.708,3.67
		s-2.584,1.504-4.333,1.504c-1.623,0-3.129-0.537-4.518-1.609l-1.28,1.469h-0.926l-0.352-6.521H163.058z"/>
</g>
<rect x="186.632" y="17.706" fill="#0A9894" width="207.151" height="38.565"/>
<g>
	<path fill="#0A9894" d="M39.352,49.853c0.005,0.189-0.252,0.344-0.572,0.342L9.006,50.291c-0.319,0.004-0.58-0.148-0.58-0.338
		l-0.009-2.283c0-0.186,0.262-0.342,0.58-0.342l29.77-0.096c0.321,0,0.584,0.148,0.581,0.334L39.352,49.853z"/>
	<path fill="#0A9894" d="M16.253,32.97c-0.013,1.195-0.951,2.154-2.077,2.137l-3.921-0.068c-1.128-0.014-2.025-1.002-2.004-2.199
		L8.741,2.137C8.761,0.938,9.692-0.016,10.82,0l3.919,0.067c1.13,0.015,2.026,1.003,2.011,2.197L16.253,32.97z"/>
	<path fill="#0A9894" d="M18.571,14.314l0.651,5.52c4.947-0.526,9.901,2.074,12.133,6.832c2.82,6.005,0.239,13.154-5.762,15.972
		c-1.016,0.475-2.064,0.795-3.116,0.972l-6.731,3.165l0.555,2.051c3.771,0.93,9.479-0.139,13.27-1.912
		c8.776-4.129,12.551-14.582,8.423-23.365C34.72,16.573,25.829,13.518,18.571,14.314z"/>
	<path fill="#0A9894" d="M18.601,24.979c-0.023,1.131-0.952,2.033-2.083,2.013l-8.176-0.133c-1.128-0.019-2.028-0.946-2.012-2.076
		l0.25-15.507C6.601,8.147,7.53,7.247,8.657,7.267L16.839,7.4c1.131,0.013,2.027,0.943,2.012,2.074L18.601,24.979z"/>
	<path fill="#0A9894" d="M25.048,14.282c1.17,2.499,0.096,5.479-2.401,6.653c-2.5,1.172-5.481,0.097-6.656-2.402
		c-1.172-2.5-0.1-5.48,2.402-6.655C20.89,10.704,23.872,11.78,25.048,14.282z"/>
	<rect x="10.938" y="43.845" fill="#0A9894" width="15.828" height="6.355"/>
	<path fill="#0A9894" d="M30.9,44.701c0,0.533-0.433,0.967-0.967,0.967H9.218c-0.534,0-0.967-0.434-0.967-0.967l0,0
		c0-0.534,0.433-0.968,0.967-0.968h20.715C30.467,43.733,30.9,44.167,30.9,44.701L30.9,44.701z"/>
</g>
<g>
	<path fill="#FFFFFF" d="M210.011,26.895c3.339,0,6.13,1.113,8.379,3.339c2.249,2.227,3.374,4.969,3.374,8.225
		c0,3.225-1.123,5.961-3.367,8.209c-2.244,2.246-4.977,3.371-8.205,3.371c-3.269,0-6.027-1.119-8.275-3.357
		c-2.248-2.234-3.372-4.941-3.372-8.117c0-2.119,0.511-4.08,1.536-5.888c1.024-1.808,2.42-3.224,4.189-4.247
		C206.038,27.406,207.953,26.895,210.011,26.895z M210.109,29.036c-1.633,0-3.176,0.424-4.639,1.274
		c-1.459,0.85-2.6,1.996-3.42,3.434c-0.82,1.439-1.23,3.043-1.23,4.813c0,2.617,0.908,4.83,2.723,6.635
		c1.816,1.805,4.006,2.705,6.566,2.705c1.709,0,3.293-0.414,4.748-1.244c1.455-0.828,2.59-1.964,3.404-3.404
		c0.816-1.438,1.225-3.037,1.225-4.795c0-1.75-0.408-3.332-1.225-4.746c-0.814-1.416-1.963-2.547-3.441-3.396
		C213.339,29.46,211.769,29.036,210.109,29.036z"/>
	<path fill="#FFFFFF" d="M227.717,27.448h11.039v2.157h-8.838v6.906h8.838v2.158h-8.838v10.814h-2.201V27.448z"/>
	<path fill="#FFFFFF" d="M256.264,29.605v-2.157h12.072v2.157h-4.912v19.879h-2.248V29.605H256.264z"/>
	<path fill="#FFFFFF" d="M273.017,27.448h2.202v9.243h11.221v-9.243h2.201v22.036h-2.201V38.847h-11.221v10.637h-2.202V27.448z"/>
	<path fill="#FFFFFF" d="M295.553,27.448h12.627v2.157h-10.425v6.906h10.336v2.158h-10.336v8.656h10.336v2.158h-12.538V27.448z"/>
	<path fill="#FFFFFF" d="M317.473,44.776c0.727,0,1.348,0.257,1.861,0.771s0.77,1.141,0.77,1.883c0,0.728-0.256,1.354-0.77,1.873
		s-1.135,0.781-1.861,0.781c-0.729,0-1.349-0.262-1.863-0.781c-0.512-0.52-0.77-1.146-0.77-1.873c0-0.742,0.258-1.369,0.77-1.883
		C316.124,45.033,316.744,44.776,317.473,44.776z"/>
	<path fill="#FFFFFF" d="M331.798,44.776c0.728,0,1.348,0.257,1.862,0.771c0.512,0.514,0.77,1.141,0.77,1.883
		c0,0.728-0.258,1.354-0.77,1.873c-0.515,0.52-1.135,0.781-1.862,0.781s-1.349-0.262-1.862-0.781s-0.77-1.146-0.77-1.873
		c0-0.742,0.256-1.369,0.77-1.883S331.07,44.776,331.798,44.776z"/>
	<path fill="#FFFFFF" d="M346.123,44.776c0.728,0,1.348,0.257,1.863,0.771c0.512,0.514,0.769,1.141,0.769,1.883
		c0,0.728-0.257,1.354-0.769,1.873c-0.516,0.52-1.136,0.781-1.863,0.781c-0.727,0-1.348-0.262-1.861-0.781
		c-0.516-0.52-0.77-1.146-0.77-1.873c0-0.742,0.254-1.369,0.77-1.883C344.775,45.033,345.396,44.776,346.123,44.776z"/>
</g>
</svg>
