<?xml version="1.0" encoding="utf-8"?>
<!-- Generator: Adobe Illustrator 15.1.0, SVG Export Plug-In . SVG Version: 6.00 Build 0)  -->
<!DOCTYPE svg PUBLIC "-//W3C//DTD SVG 1.0//EN" "http://www.w3.org/TR/2001/REC-SVG-20010904/DTD/svg10.dtd">
<svg version="1.0" id="Layer_1" xmlns="http://www.w3.org/2000/svg" xmlns:xlink="http://www.w3.org/1999/xlink" x="0px" y="0px"
	 width="393.117px" height="41.545px" viewBox="0 0 393.117 41.545" enable-background="new 0 0 393.117 41.545"
	 xml:space="preserve">
<rect fill="#020202" width="163.762" height="41.545"/>
<rect x="163.762" fill="#7F3F98" width="229.355" height="41.545"/>
<path fill="#A7A9AC" stroke="#000000" d="M63.802,24.182H52.135c0.059,2.479,0.521,4.231,1.391,5.251
	c0.997,1.147,2.266,1.722,3.807,1.722c2.273,0,4.099-1.293,5.478-3.878l1.131,0.486c-1.693,3.293-4.139,4.939-7.339,4.939
	c-2.179,0-4.014-0.79-5.502-2.367c-1.489-1.577-2.235-3.593-2.235-6.052c0-2.642,0.734-4.778,2.199-6.407
	c1.467-1.629,3.272-2.443,5.417-2.443c1.577,0,2.938,0.407,4.086,1.219c1.148,0.81,2.012,1.976,2.591,3.494
	C63.564,21.214,63.779,22.559,63.802,24.182z"/>
<line fill="none" stroke="#A7A9AC" x1="77.052" y1="15.995" x2="65.354" y2="20.933"/>
<line fill="none" stroke="#7F3F98" x1="70.124" y1="12.231" x2="63.582" y2="17.777"/>
<line fill="none" stroke="#A7A9AC" x1="39.33" y1="8.556" x2="49.593" y2="17.654"/>
<line fill="none" stroke="#7F3F98" x1="48.056" y1="7.608" x2="52.393" y2="15.004"/>
<line fill="none" stroke="#A7A9AC" x1="67.146" y1="5.266" x2="61.387" y2="15.896"/>
<line fill="none" stroke="#7F3F98" x1="60.118" y1="5.782" x2="58.381" y2="14.178"/>
<line fill="none" stroke="#A7A9AC" x1="53.975" y1="1.868" x2="55.037" y2="13.882"/>
<line fill="none" stroke="#7F3F98" x1="40.337" y1="17.046" x2="48.326" y2="20.153"/>
<line fill="none" stroke="#A7A9AC" stroke-miterlimit="10" x1="47.243" y1="22.033" x2="34.738" y2="19.833"/>
<path fill="#FFFFFF" d="M29.014,15.771h8.016v1.182c-1.066,0.023-1.747,0.12-2.043,0.287c-0.296,0.168-0.444,0.409-0.444,0.722
	c0,0.255,0.059,0.51,0.174,0.765l4.321,9.616l3.931-9.324c0.057-0.161,0.087-0.324,0.087-0.485c0-0.844-0.832-1.373-2.496-1.581
	v-1.182h6.746v1.182c-0.684,0.07-1.229,0.256-1.633,0.557c-0.407,0.302-0.719,0.708-0.94,1.219L38.764,32.55h-0.941l-6.41-14.206
	c-0.232-0.51-0.514-0.866-0.844-1.069c-0.331-0.202-0.849-0.311-1.556-0.321V15.771z"/>
<path fill="#FFFFFF" d="M63.802,24.274H52.135c0.059,2.48,0.521,4.232,1.391,5.252c0.997,1.146,2.267,1.721,3.809,1.721
	c2.271,0,4.098-1.292,5.476-3.877l1.131,0.486c-1.693,3.291-4.138,4.938-7.337,4.938c-2.18,0-4.014-0.788-5.503-2.364
	c-1.49-1.577-2.235-3.593-2.235-6.052c0-2.642,0.733-4.779,2.2-6.408s3.272-2.443,5.417-2.443c1.577,0,2.939,0.406,4.086,1.219
	c1.147,0.81,2.011,1.975,2.591,3.494C63.564,21.306,63.78,22.651,63.802,24.274z M52.135,23.04h7.059
	c0.417,0,0.743-0.143,0.975-0.426c0.231-0.284,0.348-0.769,0.348-1.453c0-1.274-0.397-2.358-1.192-3.25
	c-0.794-0.892-1.73-1.339-2.807-1.339c-1.205,0-2.229,0.538-3.069,1.616C52.607,19.267,52.17,20.883,52.135,23.04z"/>
<path fill="#FFFFFF" d="M66.398,15.771l5.859-0.294v6.59c0.626-2.168,1.379-3.809,2.26-4.922c0.881-1.112,1.971-1.668,3.27-1.668
	c0.879,0,1.585,0.268,2.113,0.807s0.791,1.261,0.791,2.165c0,0.731-0.177,1.299-0.531,1.704c-0.354,0.407-0.797,0.609-1.33,0.609
	c-0.521,0-0.943-0.173-1.261-0.521c-0.318-0.347-0.479-0.816-0.479-1.408c0-0.384,0.093-0.741,0.279-1.078
	c0.174-0.302,0.26-0.482,0.26-0.539c0-0.174-0.11-0.261-0.33-0.261c-0.476,0-1.015,0.278-1.617,0.835
	c-0.835,0.776-1.478,1.843-1.93,3.199c-0.696,2.11-1.044,3.797-1.044,5.061v3.494c0,0.394,0.139,0.695,0.417,0.904
	c0.278,0.21,0.753,0.314,1.425,0.314h2.07v1.303H66.503v-1.303h1.616c0.545,0,0.957-0.109,1.234-0.321
	c0.278-0.216,0.417-0.474,0.417-0.774V19.285c0-0.79-0.169-1.367-0.504-1.731c-0.336-0.365-0.817-0.546-1.443-0.546h-1.427v-1.236
	H66.398z"/>
<path fill="#FFFFFF" d="M82.1,15.771h7.807v1.182h-0.73c-0.684,0-1.149,0.091-1.399,0.271s-0.374,0.437-0.374,0.773
	c0,0.151,0.034,0.3,0.104,0.451l4.539,9.791l3.373-8.121c0.243-0.58,0.365-1.147,0.365-1.705c0-0.428-0.168-0.762-0.504-0.999
	c-0.336-0.237-1.009-0.391-2.017-0.461v-1.182h6.781v1.182c-1.311,0.127-2.19,0.713-2.644,1.756l-6.027,14.024
	c-1.025,2.383-2.052,4.02-3.083,4.912c-1.045,0.905-2.163,1.356-3.356,1.356c-0.87,0-1.568-0.237-2.095-0.714
	c-0.528-0.476-0.791-1.061-0.791-1.754c0-0.523,0.162-0.951,0.486-1.288s0.731-0.505,1.217-0.505c0.441,0,0.812,0.145,1.113,0.436
	c0.302,0.289,0.452,0.638,0.452,1.043c0,0.128-0.023,0.303-0.069,0.521c-0.047,0.174-0.07,0.303-0.07,0.381
	c0,0.281,0.18,0.418,0.54,0.418c0.382,0,0.813-0.138,1.295-0.418c0.48-0.276,0.93-0.723,1.348-1.337
	c0.417-0.615,1.148-1.978,2.194-4.084l-6.183-13.252c-0.22-0.461-0.494-0.807-0.824-1.034c-0.329-0.226-0.813-0.379-1.447-0.46
	V15.771z"/>
<path fill="#FFFFFF" d="M110.823,6.347l6.366-0.296v22.292c0,0.868,0.164,1.489,0.495,1.86c0.33,0.371,0.826,0.557,1.487,0.557
	h1.129v1.304h-5.564l-0.416-3.321c-0.662,1.183-1.435,2.072-2.322,2.668c-0.887,0.6-1.88,0.898-2.982,0.898
	c-1.854,0-3.434-0.778-4.738-2.332c-1.303-1.552-1.956-3.604-1.956-6.154c0-2.76,0.835-4.963,2.504-6.609
	c1.31-1.286,2.817-1.929,4.521-1.929c1.044,0,1.98,0.261,2.808,0.782c0.828,0.521,1.55,1.31,2.165,2.364V9.233
	c0-0.488-0.189-0.873-0.564-1.156c-0.378-0.284-0.966-0.426-1.766-0.426h-1.164L110.823,6.347L110.823,6.347z M109.815,16.729
	c-1.251,0-2.246,0.516-2.983,1.547c-0.735,1.033-1.104,2.77-1.104,5.216c0,2.654,0.377,4.523,1.13,5.607
	c0.753,1.084,1.721,1.626,2.904,1.626c1.264,0,2.346-0.606,3.243-1.816c0.897-1.213,1.347-2.982,1.347-5.313
	c0-2.202-0.481-3.935-1.443-5.199C112.077,17.284,111.045,16.729,109.815,16.729z"/>
<path fill="#FFFFFF" d="M139.254,30.272l0.626,0.975c-0.847,0.871-1.786,1.305-2.816,1.305c-0.789,0-1.453-0.215-1.992-0.645
	c-0.541-0.429-1.012-1.18-1.418-2.26c-1.101,1.158-2.068,1.932-2.903,2.32c-0.834,0.39-1.837,0.583-3.008,0.583
	c-1.669,0-2.938-0.358-3.807-1.079c-0.87-0.717-1.305-1.64-1.305-2.765c0-1.692,0.994-3.099,2.981-4.216
	c1.986-1.119,4.634-1.865,7.938-2.235v-2.47c0-0.88-0.354-1.635-1.061-2.26c-0.707-0.625-1.605-0.939-2.695-0.939
	c-1.01,0-1.878,0.208-2.608,0.625c-0.521,0.313-0.781,0.62-0.781,0.923c0,0.173,0.138,0.445,0.417,0.817
	c0.335,0.463,0.503,0.876,0.503,1.235c0,0.52-0.168,0.946-0.503,1.277c-0.337,0.331-0.777,0.495-1.322,0.495
	c-0.581,0-1.063-0.196-1.453-0.59c-0.388-0.393-0.581-0.898-0.581-1.513c0-1.147,0.645-2.197,1.938-3.146
	c1.293-0.951,2.988-1.427,5.086-1.427c1.936,0,3.414,0.417,4.434,1.252c1.02,0.847,1.531,1.872,1.531,3.078v8.901
	c0,0.789,0.127,1.369,0.382,1.739c0.254,0.382,0.584,0.574,0.991,0.574C138.279,30.829,138.754,30.643,139.254,30.272z
	 M133.551,23.405c-2.944,0.406-5.031,1.066-6.26,1.982c-0.917,0.694-1.374,1.68-1.374,2.956c0,0.892,0.238,1.591,0.712,2.095
	c0.476,0.506,1.097,0.756,1.861,0.756c1.367,0,2.553-0.518,3.556-1.556c1.001-1.037,1.504-2.339,1.504-3.903L133.551,23.405
	L133.551,23.405z"/>
<path fill="#FFFFFF" d="M141.479,15.771h7.807v1.182h-0.73c-0.684,0-1.15,0.091-1.399,0.271c-0.249,0.18-0.374,0.437-0.374,0.773
	c0,0.151,0.035,0.3,0.104,0.451l4.539,9.791l3.373-8.121c0.243-0.58,0.364-1.147,0.364-1.705c0-0.428-0.168-0.762-0.502-0.999
	c-0.337-0.237-1.009-0.391-2.018-0.461v-1.182h6.781v1.182c-1.31,0.127-2.19,0.713-2.643,1.756l-6.027,14.024
	c-1.024,2.383-2.052,4.02-3.084,4.912c-1.044,0.905-2.162,1.356-3.355,1.356c-0.869,0-1.569-0.237-2.095-0.714
	c-0.528-0.476-0.791-1.061-0.791-1.754c0-0.523,0.162-0.951,0.485-1.288c0.325-0.337,0.732-0.505,1.218-0.505
	c0.44,0,0.811,0.145,1.113,0.436c0.301,0.289,0.451,0.638,0.451,1.043c0,0.128-0.023,0.303-0.069,0.521
	c-0.047,0.174-0.069,0.303-0.069,0.381c0,0.281,0.179,0.418,0.538,0.418c0.383,0,0.814-0.138,1.296-0.418
	c0.481-0.276,0.931-0.723,1.348-1.337c0.418-0.615,1.148-1.978,2.195-4.084l-6.183-13.252c-0.22-0.463-0.494-0.809-0.824-1.034
	c-0.329-0.227-0.813-0.379-1.448-0.461V15.771L141.479,15.771z"/>
<g>
	<path fill="#FFFFFF" d="M5.744,6.034h20.602l0.492,8.771H25.66c-0.469-2.766-1.207-4.699-2.221-5.801
		c-1.011-1.102-2.332-1.652-3.958-1.652h-5.089c-0.41,0-0.721,0.111-0.932,0.334s-0.316,0.563-0.316,1.02v9.264h2.227
		c1.192,0,2.159-0.428,2.9-1.283c0.744-0.855,1.143-2.168,1.201-3.938h1.213V24.79h-1.213c-0.059-1.992-0.463-3.419-1.219-4.28
		c-0.753-0.861-1.778-1.292-3.076-1.292h-2.033v10.336c0,0.375,0.126,0.662,0.378,0.861s0.671,0.299,1.254,0.299h4.022
		c4.365,0,6.882-2.789,7.547-8.367h1.266l-0.439,9.686H5.744v-1.318h1.775c0.691,0,1.178-0.12,1.459-0.36S9.4,29.764,9.4,29.307
		V8.706c0-0.457-0.123-0.797-0.369-1.02s-0.633-0.334-1.16-0.334H5.744V6.034z"/>
</g>
<g>
	<path fill="#FFFFFF" d="M190.291,14.44l-1.731,1.327c-0.952-1.242-2.099-2.183-3.437-2.824c-1.336-0.642-2.804-0.961-4.405-0.961
		c-1.75,0-3.369,0.419-4.86,1.26c-1.491,0.839-2.647,1.967-3.467,3.384c-0.819,1.415-1.229,3.009-1.229,4.778
		c0,2.673,0.917,4.905,2.75,6.694c1.834,1.789,4.148,2.684,6.94,2.684c3.073,0,5.643-1.202,7.708-3.609l1.731,1.313
		c-1.094,1.393-2.458,2.469-4.093,3.229c-1.636,0.761-3.463,1.141-5.48,1.141c-3.836,0-6.863-1.276-9.081-3.831
		c-1.857-2.157-2.786-4.763-2.786-7.812c0-3.211,1.125-5.912,3.375-8.104c2.253-2.191,5.071-3.287,8.461-3.287
		c2.048,0,3.896,0.404,5.547,1.214C187.884,11.845,189.236,12.98,190.291,14.44z"/>
	<path fill="#FFFFFF" d="M206.659,9.82c3.322,0,6.101,1.107,8.338,3.324c2.238,2.216,3.357,4.945,3.357,8.186
		c0,3.21-1.117,5.935-3.35,8.169c-2.232,2.237-4.955,3.355-8.168,3.355c-3.252,0-5.996-1.113-8.234-3.34
		c-2.239-2.226-3.358-4.92-3.358-8.081c0-2.106,0.51-4.061,1.529-5.859c1.02-1.799,2.41-3.208,4.168-4.228
		C202.704,10.329,204.609,9.82,206.659,9.82z M206.755,11.952c-1.623,0-3.16,0.423-4.613,1.269s-2.59,1.985-3.406,3.417
		s-1.223,3.028-1.223,4.789c0,2.605,0.903,4.808,2.709,6.602c1.807,1.797,3.984,2.694,6.533,2.694c1.703,0,3.279-0.411,4.727-1.237
		c1.448-0.826,2.578-1.955,3.389-3.387c0.813-1.434,1.219-3.025,1.219-4.776c0-1.74-0.406-3.315-1.219-4.723
		c-0.811-1.408-1.953-2.534-3.426-3.379C209.971,12.375,208.407,11.952,206.755,11.952z"/>
	<path fill="#FFFFFF" d="M224.296,32.303V10.371h0.477l14.596,16.812V10.371h2.162v21.932h-0.492L226.56,15.696v16.607H224.296z"/>
	<path fill="#FFFFFF" d="M248.409,32.303V10.371h0.479l14.596,16.812V10.371h2.162v21.932h-0.492l-14.479-16.607v16.607H248.409z"/>
	<path fill="#FFFFFF" d="M272.524,10.371h12.568v2.147h-10.377v6.873h10.287v2.147h-10.287v8.616h10.287v2.148h-12.479V10.371z"/>
	<path fill="#FFFFFF" d="M310.833,14.44l-1.732,1.327c-0.951-1.242-2.099-2.183-3.436-2.824c-1.336-0.642-2.805-0.961-4.405-0.961
		c-1.751,0-3.369,0.419-4.86,1.26c-1.491,0.839-2.646,1.967-3.467,3.384c-0.819,1.415-1.229,3.009-1.229,4.778
		c0,2.673,0.917,4.905,2.749,6.694c1.834,1.789,4.148,2.684,6.941,2.684c3.072,0,5.643-1.202,7.707-3.609l1.732,1.313
		c-1.095,1.393-2.459,2.469-4.094,3.229c-1.636,0.761-3.463,1.141-5.479,1.141c-3.837,0-6.862-1.276-9.081-3.831
		c-1.857-2.157-2.785-4.763-2.785-7.812c0-3.211,1.125-5.912,3.375-8.104c2.252-2.191,5.07-3.287,8.461-3.287
		c2.047,0,3.896,0.404,5.547,1.214C308.426,11.845,309.778,12.98,310.833,14.44z"/>
	<path fill="#FFFFFF" d="M314.579,12.519v-2.147h12.018v2.147h-4.889v19.785h-2.237V12.519H314.579z"/>
	<path fill="#FFFFFF" d="M330.972,10.371h2.191v21.932h-2.191V10.371z"/>
	<path fill="#FFFFFF" d="M350.157,9.82c3.322,0,6.104,1.107,8.342,3.324s3.357,4.945,3.357,8.186c0,3.21-1.118,5.935-3.351,8.169
		c-2.233,2.237-4.956,3.355-8.168,3.355c-3.253,0-5.999-1.113-8.235-3.34c-2.238-2.226-3.355-4.92-3.355-8.081
		c0-2.106,0.51-4.061,1.527-5.859c1.02-1.799,2.41-3.208,4.17-4.228C346.206,10.329,348.11,9.82,350.157,9.82z M350.256,11.952
		c-1.623,0-3.161,0.423-4.616,1.269c-1.453,0.845-2.586,1.985-3.404,3.417c-0.815,1.433-1.225,3.028-1.225,4.789
		c0,2.605,0.904,4.808,2.711,6.602c1.807,1.797,3.985,2.694,6.534,2.694c1.702,0,3.276-0.411,4.726-1.237s2.58-1.955,3.391-3.387
		c0.811-1.434,1.217-3.025,1.217-4.776c0-1.74-0.406-3.315-1.217-4.723s-1.953-2.534-3.428-3.379
		C353.472,12.375,351.908,11.952,350.256,11.952z"/>
	<path fill="#FFFFFF" d="M367.794,32.303V10.371h0.479l14.596,16.812V10.371h2.162v21.932h-0.492l-14.478-16.607v16.607H367.794z"/>
</g>
</svg>
