<?xml version="1.0" encoding="utf-8"?>
<!-- Generator: Adobe Illustrator 15.1.0, SVG Export Plug-In . SVG Version: 6.00 Build 0)  -->
<!DOCTYPE svg PUBLIC "-//W3C//DTD SVG 1.0//EN" "http://www.w3.org/TR/2001/REC-SVG-20010904/DTD/svg10.dtd">
<svg version="1.0" id="Layer_1" xmlns="http://www.w3.org/2000/svg" xmlns:xlink="http://www.w3.org/1999/xlink" x="0px" y="0px"
	 width="392.675px" height="53.187px" viewBox="0 0 392.675 53.187" enable-background="new 0 0 392.675 53.187"
	 xml:space="preserve">
<rect y="16.885" fill="#010101" width="201.393" height="36.302"/>
<g>
	<path fill="#FFFFFF" d="M4.188,23.333H14.59v1.233h-1.909c-0.669,0-1.106,0.119-1.309,0.354c-0.203,0.236-0.304,0.809-0.304,1.72
		v7.506h11.125v-7.506c0-0.943-0.096-1.524-0.288-1.744c-0.191-0.219-0.645-0.33-1.357-0.33h-1.778v-1.233h10.336v1.233h-1.893
		c-0.472,0-0.803,0.062-0.996,0.182c-0.191,0.12-0.349,0.328-0.469,0.626c-0.066,0.186-0.098,0.675-0.098,1.465v17.512
		c0,0.844,0.071,1.355,0.214,1.531c0.285,0.373,0.807,0.56,1.563,0.56h1.679v1.234H18.771v-1.234h1.778
		c0.702,0,1.18-0.192,1.432-0.576c0.143-0.208,0.214-0.759,0.214-1.646v-8.461H11.068v8.593c0,0.855,0.065,1.371,0.197,1.547
		c0.274,0.362,0.747,0.544,1.416,0.544h1.909v1.234H4.188v-1.234h1.991c0.352,0,0.632-0.072,0.84-0.216
		c0.208-0.141,0.362-0.344,0.461-0.607c0.055-0.175,0.082-0.642,0.082-1.399V26.641c0-0.911-0.102-1.483-0.305-1.72
		c-0.203-0.235-0.645-0.354-1.325-0.354H4.188V23.333z"/>
	<path fill="#FFFFFF" d="M39.064,31.793c2.074,0,3.816,0.748,5.226,2.245c1.41,1.499,2.115,3.472,2.115,5.918
		c0,1.69-0.316,3.129-0.947,4.321c-0.631,1.189-1.53,2.13-2.699,2.821c-1.168,0.691-2.428,1.037-3.777,1.037
		c-1.998,0-3.69-0.756-5.078-2.271c-1.388-1.515-2.082-3.479-2.082-5.893c0-2.425,0.697-4.395,2.09-5.908
		C35.306,32.55,37.024,31.793,39.064,31.793z M39.064,32.96c-1.229,0-2.238,0.559-3.029,1.672c-0.789,1.114-1.185,2.872-1.185,5.274
		c0,2.446,0.393,4.236,1.177,5.366c0.784,1.129,1.797,1.694,3.037,1.694c1.284,0,2.323-0.565,3.12-1.694
		c0.795-1.13,1.193-2.979,1.193-5.548c0-2.38-0.393-4.103-1.177-5.168C41.416,33.493,40.371,32.96,39.064,32.96z"/>
	<path fill="#FFFFFF" d="M49.598,32.254l4.411-0.281c0.242,1.148,0.401,2.24,0.478,3.278c0.835-1.202,1.67-2.048,2.505-2.54
		c0.836-0.492,1.753-0.738,2.753-0.738c1.066,0,1.945,0.28,2.637,0.837c0.693,0.558,1.226,1.465,1.6,2.722
		c0.734-1.191,1.55-2.082,2.449-2.674c0.898-0.589,1.878-0.885,2.941-0.885c1.402,0,2.455,0.418,3.155,1.251
		c0.898,1.099,1.348,2.514,1.348,4.247v7.653c0,0.46,0.114,0.773,0.346,0.938c0.308,0.254,0.762,0.38,1.365,0.38h0.773v1.234h-7.752
		v-1.234h0.773c0.659,0,1.119-0.11,1.383-0.33s0.396-0.549,0.396-0.99v-7.662c0-1.142-0.278-2.026-0.838-2.653
		c-0.558-0.627-1.292-0.94-2.2-0.94c-0.688,0-1.313,0.185-1.872,0.554c-0.558,0.366-0.996,0.893-1.313,1.573
		c-0.472,0.979-0.706,1.808-0.706,2.487v6.642c0,0.451,0.12,0.785,0.362,0.999s0.614,0.321,1.119,0.321h1.053v1.234h-7.867v-1.234
		h0.888c0.56,0,0.976-0.11,1.251-0.33c0.274-0.22,0.412-0.498,0.412-0.839v-7.11c0-1.503-0.267-2.595-0.798-3.275
		c-0.533-0.68-1.248-1.021-2.148-1.021c-1.163,0-2.058,0.396-2.683,1.187c-0.888,1.119-1.333,2.425-1.333,3.917v6.155
		c0,0.472,0.104,0.796,0.313,0.972c0.296,0.229,0.757,0.346,1.383,0.346h0.789v1.234h-7.768v-1.234h1.168
		c0.438,0,0.776-0.11,1.012-0.33s0.354-0.498,0.354-0.839V35.166c0-0.56-0.143-0.976-0.428-1.251
		c-0.286-0.273-0.855-0.449-1.712-0.527V32.254z"/>
	<path fill="#FFFFFF" d="M93.082,40.07H82.039c0.054,2.35,0.494,4.005,1.317,4.972c0.943,1.087,2.145,1.629,3.604,1.629
		c2.15,0,3.879-1.223,5.186-3.671l1.069,0.462c-1.603,3.115-3.917,4.674-6.946,4.674c-2.063,0-3.798-0.745-5.209-2.238
		c-1.409-1.491-2.115-3.401-2.115-5.728c0-2.502,0.694-4.523,2.083-6.064c1.389-1.542,3.097-2.313,5.127-2.313
		c1.491,0,2.78,0.384,3.867,1.152c1.087,0.768,1.904,1.869,2.452,3.308C92.856,37.263,93.06,38.535,93.082,40.07z M82.039,38.903
		h6.681c0.396,0,0.703-0.135,0.923-0.403c0.22-0.27,0.328-0.727,0.328-1.374c0-1.207-0.375-2.233-1.126-3.079
		c-0.751-0.844-1.638-1.267-2.659-1.267c-1.141,0-2.109,0.511-2.905,1.53S82.072,36.862,82.039,38.903z"/>
	<path fill="#FFFFFF" d="M102.744,31.793c2.074,0,3.814,0.748,5.225,2.245c1.411,1.499,2.115,3.472,2.115,5.918
		c0,1.69-0.315,3.129-0.948,4.321c-0.63,1.189-1.529,2.13-2.698,2.821s-2.429,1.037-3.776,1.037c-1.998,0-3.691-0.756-5.079-2.271
		s-2.082-3.479-2.082-5.893c0-2.425,0.697-4.395,2.089-5.908C98.985,32.55,100.702,31.793,102.744,31.793z M102.744,32.96
		c-1.23,0-2.238,0.559-3.029,1.672c-0.79,1.114-1.185,2.872-1.185,5.274c0,2.446,0.393,4.236,1.176,5.366
		c0.785,1.129,1.797,1.694,3.038,1.694c1.283,0,2.323-0.565,3.119-1.694c0.795-1.13,1.194-2.979,1.194-5.548
		c0-2.38-0.393-4.103-1.178-5.168C105.094,33.493,104.049,32.96,102.744,32.96z"/>
	<path fill="#FFFFFF" d="M114.182,41.865c0.681,1.898,1.462,3.212,2.347,3.941c0.882,0.729,1.972,1.096,3.267,1.096
		c1.195,0,2.115-0.261,2.757-0.782s0.962-1.184,0.962-1.983c0-0.461-0.119-0.864-0.354-1.21s-0.564-0.604-0.98-0.773
		c-0.419-0.17-1.501-0.419-3.249-0.75c-1.673-0.328-2.836-0.674-3.495-1.035c-0.659-0.362-1.173-0.861-1.541-1.499
		c-0.368-0.636-0.551-1.327-0.551-2.074c0-1.129,0.378-2.156,1.137-3.076c0.979-1.175,2.347-1.762,4.104-1.762
		c1.34,0,2.581,0.423,3.724,1.267l1.09-1.151h0.675l0.429,5.496h-1.104c-0.483-1.557-1.137-2.679-1.961-3.364
		s-1.841-1.03-3.051-1.03c-1.044,0-1.863,0.257-2.458,0.767c-0.592,0.511-0.891,1.132-0.891,1.867c0,0.647,0.275,1.187,0.826,1.614
		c0.538,0.439,1.594,0.785,3.164,1.037c1.825,0.311,3.012,0.568,3.563,0.778c0.901,0.329,1.598,0.836,2.092,1.521
		c0.495,0.686,0.741,1.521,0.741,2.508c0,1.359-0.535,2.511-1.605,3.454c-1.072,0.943-2.432,1.415-4.08,1.415
		c-1.528,0-2.944-0.504-4.252-1.515l-1.203,1.383h-0.875l-0.328-6.139H114.182z"/>
	<path fill="#FFFFFF" d="M131.991,25.967h1.102v6.287h4.988v1.514h-4.988v9.892c0,0.855,0.204,1.512,0.609,1.966
		c0.406,0.457,0.923,0.685,1.547,0.685c0.747,0,1.383-0.346,1.91-1.037c0.526-0.691,0.833-1.833,0.921-3.424h1.103
		c-0.067,2.053-0.533,3.574-1.4,4.567c-0.866,0.993-1.991,1.49-3.372,1.49c-1.274,0-2.271-0.349-2.988-1.045
		c-0.719-0.697-1.078-1.611-1.078-2.742V33.768h-2.684v-1.153c1.223-0.208,2.153-0.718,2.792-1.529
		C131.401,29.866,131.914,28.161,131.991,25.967z"/>
	<path fill="#FFFFFF" d="M157.337,45.979l0.593,0.923c-0.803,0.822-1.69,1.233-2.667,1.233c-0.746,0-1.374-0.202-1.885-0.609
		c-0.51-0.404-0.957-1.119-1.34-2.139c-1.043,1.098-1.958,1.83-2.75,2.197c-0.79,0.366-1.739,0.551-2.848,0.551
		c-1.579,0-2.78-0.34-3.604-1.02c-0.823-0.681-1.233-1.553-1.233-2.617c0-1.602,0.94-2.933,2.821-3.992
		c1.882-1.058,4.386-1.764,7.515-2.115v-2.336c0-0.834-0.335-1.547-1.005-2.141c-0.669-0.592-1.521-0.888-2.552-0.888
		c-0.954,0-1.777,0.196-2.468,0.592c-0.494,0.296-0.74,0.588-0.74,0.873c0,0.164,0.132,0.422,0.394,0.773
		c0.318,0.439,0.478,0.829,0.478,1.169c0,0.492-0.16,0.896-0.478,1.209c-0.318,0.312-0.734,0.47-1.25,0.47
		c-0.551,0-1.008-0.188-1.375-0.56c-0.368-0.373-0.552-0.851-0.552-1.433c0-1.087,0.612-2.08,1.837-2.979
		c1.222-0.899,2.827-1.349,4.813-1.349c1.833,0,3.231,0.394,4.197,1.185c0.965,0.8,1.449,1.772,1.449,2.912v8.429
		c0,0.746,0.12,1.295,0.362,1.646c0.242,0.361,0.554,0.543,0.939,0.543C156.416,46.507,156.864,46.331,157.337,45.979z
		 M151.939,39.479c-2.789,0.384-4.764,1.011-5.927,1.877c-0.867,0.657-1.299,1.591-1.299,2.798c0,0.845,0.224,1.506,0.675,1.983
		c0.448,0.478,1.037,0.716,1.761,0.716c1.295,0,2.417-0.492,3.366-1.474s1.424-2.213,1.424-3.694V39.479z"/>
	<path fill="#FFFFFF" d="M163.854,25.967h1.103v6.287h4.988v1.514h-4.988v9.892c0,0.855,0.204,1.512,0.608,1.966
		c0.407,0.457,0.923,0.685,1.548,0.685c0.746,0,1.381-0.346,1.909-1.037s0.835-1.833,0.923-3.424h1.102
		c-0.066,2.053-0.532,3.574-1.399,4.567c-0.866,0.993-1.991,1.49-3.374,1.49c-1.274,0-2.269-0.349-2.988-1.045
		c-0.718-0.697-1.078-1.611-1.078-2.742V33.768h-2.682v-1.153c1.223-0.208,2.153-0.718,2.792-1.529
		C163.266,29.866,163.778,28.161,163.854,25.967z"/>
	<path fill="#FFFFFF" d="M172.611,32.254l6.138-0.182v13.266c0,0.362,0.088,0.621,0.264,0.773c0.252,0.22,0.571,0.33,0.955,0.33
		h1.745v1.234h-8.773v-1.234h1.629c0.483,0,0.838-0.119,1.063-0.354c0.224-0.236,0.337-0.579,0.337-1.028v-9.711
		c0-0.615-0.176-1.078-0.527-1.392c-0.352-0.312-0.873-0.469-1.564-0.469h-1.266V32.254z M176.89,23.052
		c0.494,0,0.927,0.188,1.299,0.56c0.374,0.375,0.56,0.813,0.56,1.318c0,0.492-0.18,0.92-0.542,1.283
		c-0.363,0.362-0.797,0.542-1.301,0.542s-0.94-0.182-1.308-0.551c-0.368-0.366-0.552-0.797-0.552-1.292
		c0-0.493,0.188-0.926,0.56-1.301C175.979,23.239,176.407,23.052,176.89,23.052z"/>
	<path fill="#FFFFFF" d="M195.308,43.1l1.069,0.313c-0.855,3.149-2.742,4.723-5.662,4.723c-2.14,0-3.889-0.707-5.251-2.124
		c-1.359-1.415-2.039-3.296-2.039-5.644c0-2.722,0.744-4.831,2.238-6.33c1.491-1.497,3.246-2.245,5.266-2.245
		c1.513,0,2.764,0.417,3.751,1.251c0.989,0.833,1.482,1.761,1.482,2.781c0,0.614-0.185,1.122-0.551,1.522
		c-0.369,0.399-0.804,0.601-1.31,0.601c-0.494,0-0.911-0.169-1.251-0.509s-0.51-0.75-0.51-1.23s0.188-0.94,0.56-1.377
		c0.176-0.208,0.264-0.372,0.264-0.492c0-0.317-0.214-0.627-0.642-0.929c-0.428-0.299-1.011-0.451-1.746-0.451
		c-1.339,0-2.353,0.489-3.044,1.465c-0.987,1.412-1.481,3.275-1.481,5.589c0,2.203,0.438,3.871,1.317,5.005
		c0.877,1.134,1.997,1.702,3.357,1.702C193.002,46.721,194.396,45.514,195.308,43.1z"/>
</g>
<rect x="199.123" y="5.921" transform="matrix(0.9981 0.0618 -0.0618 0.9981 2.0539 -18.2232)" fill="#1F3D75" width="192.613" height="36.299"/>
<g>
	<path fill="#FFFFFF" d="M208.519,7.799l1.95,0.121l-1.208,19.518l-1.95-0.12L208.519,7.799z"/>
	<path fill="#FFFFFF" d="M214.201,27.744l4.003-19.345l0.318,0.02l6.941,16.507l8.85-15.528l0.313,0.02l1.6,19.69l-1.911-0.117
		l-1.065-14.078l-7.765,13.53l-0.498-0.03l-6.113-14.496l-2.789,13.945L214.201,27.744z"/>
	<path fill="#FFFFFF" d="M242.683,9.916l3.848,0.238c1.547,0.096,2.728,0.354,3.536,0.771c0.806,0.418,1.43,1.023,1.863,1.813
		c0.435,0.791,0.624,1.65,0.567,2.58c-0.055,0.867-0.314,1.642-0.779,2.329c-0.468,0.687-1.124,1.223-1.971,1.615
		c0.993,0.407,1.749,0.861,2.268,1.359c0.518,0.498,0.908,1.087,1.172,1.764c0.264,0.68,0.371,1.402,0.322,2.173
		c-0.097,1.564-0.75,2.854-1.963,3.867c-1.213,1.012-2.783,1.457-4.713,1.339l-5.359-0.333L242.683,9.916z M243.967,20.159
		l-0.463,7.482l2.417,0.149c1.427,0.089,2.481,0.015,3.164-0.225c0.682-0.237,1.242-0.639,1.682-1.207s0.683-1.195,0.725-1.887
		c0.055-0.867-0.183-1.641-0.71-2.32c-0.528-0.683-1.28-1.172-2.256-1.474c-0.655-0.199-1.808-0.35-3.457-0.451L243.967,20.159z
		 M244.477,11.944l-0.388,6.25l1.114,0.069c1.356,0.083,2.361,0.019,3.017-0.192c0.654-0.214,1.185-0.58,1.589-1.102
		c0.407-0.52,0.632-1.113,0.673-1.775c0.055-0.894-0.216-1.614-0.809-2.162c-0.594-0.547-1.572-0.863-2.938-0.947L244.477,11.944z"
		/>
	<path fill="#FFFFFF" d="M267.565,11.458l7.893,20.081l-2.106-0.132l-2.672-6.61l-8.408-0.521l-3.438,6.232l-2.176-0.135
		l10.43-18.945L267.565,11.458z M267.062,15.589l-3.782,6.858l6.674,0.413L267.062,15.589z"/>
	<path fill="#FFFFFF" d="M281.05,12.293l1.952,0.121l-1.093,17.634l7.509,0.465l-0.116,1.884l-9.461-0.586L281.05,12.293z"/>
	<path fill="#FFFFFF" d="M302.936,13.648l7.894,20.082l-2.107-0.132l-2.672-6.612l-8.408-0.52l-3.438,6.232l-2.176-0.135
		l10.43-18.945L302.936,13.648z M302.433,17.778l-3.781,6.86l6.672,0.413L302.433,17.778z"/>
	<path fill="#FFFFFF" d="M315.228,34.003l1.208-19.518l0.423,0.026l12.064,15.765l0.926-14.96l1.924,0.118l-1.209,19.518
		l-0.438-0.026l-11.968-15.577l-0.915,14.777L315.228,34.003z"/>
	<path fill="#FFFFFF" d="M355.835,20.562l-1.611,1.086c-0.781-1.159-1.746-2.06-2.904-2.704c-1.154-0.644-2.443-1.01-3.867-1.098
		c-1.559-0.097-3.021,0.188-4.395,0.853s-2.463,1.605-3.271,2.821c-0.807,1.213-1.26,2.609-1.359,4.184
		c-0.146,2.379,0.547,4.417,2.08,6.11c1.535,1.693,3.543,2.617,6.029,2.77c2.73,0.17,5.086-0.759,7.059-2.786l1.467,1.263
		c-1.051,1.18-2.324,2.06-3.82,2.648c-1.498,0.586-3.145,0.823-4.939,0.712c-3.414-0.211-6.039-1.515-7.869-3.911
		c-1.535-2.021-2.219-4.39-2.051-7.105c0.176-2.856,1.33-5.199,3.453-7.024c2.123-1.828,4.693-2.646,7.709-2.459
		c1.822,0.112,3.447,0.575,4.871,1.387C353.837,18.118,354.978,19.202,355.835,20.562z"/>
	<path fill="#FFFFFF" d="M361.345,17.266l11.186,0.694l-0.117,1.91l-9.234-0.572l-0.379,6.117l9.154,0.566l-0.119,1.91l-9.154-0.566
		l-0.475,7.668l9.152,0.568l-0.117,1.91l-11.105-0.688L361.345,17.266z"/>
	<path fill="#FFFFFF" d="M374.259,34.011l1.721-0.893c1.035,2.221,2.32,3.38,3.85,3.475c0.652,0.041,1.277-0.074,1.871-0.344
		c0.592-0.27,1.059-0.652,1.389-1.146c0.334-0.494,0.52-1.03,0.555-1.604c0.041-0.654-0.141-1.31-0.545-1.964
		c-0.557-0.905-1.607-2.018-3.15-3.339c-1.553-1.331-2.51-2.283-2.873-2.856c-0.633-0.962-0.918-1.979-0.85-3.05
		c0.053-0.848,0.303-1.609,0.752-2.282c0.451-0.674,1.059-1.189,1.822-1.547c0.762-0.355,1.578-0.507,2.445-0.454
		c0.92,0.058,1.766,0.337,2.539,0.844c0.771,0.504,1.566,1.395,2.385,2.671l-1.668,1.108c-0.672-1.018-1.26-1.699-1.758-2.039
		c-0.498-0.343-1.055-0.533-1.664-0.569c-0.787-0.049-1.443,0.15-1.975,0.596c-0.529,0.448-0.814,1.02-0.857,1.72
		c-0.027,0.425,0.037,0.841,0.188,1.25c0.152,0.408,0.451,0.862,0.887,1.36c0.244,0.264,1.043,0.966,2.402,2.106
		c1.611,1.351,2.701,2.534,3.27,3.545c0.568,1.014,0.822,2.01,0.762,2.991c-0.088,1.415-0.703,2.612-1.842,3.589
		c-1.139,0.978-2.479,1.418-4.02,1.323c-1.184-0.073-2.238-0.456-3.164-1.15C375.806,36.66,374.983,35.547,374.259,34.011z"/>
</g>
<polygon fill="#222020" points="325.64,44.698 318.885,52.387 333.36,52.387 "/>
</svg>
